<?xml version="1.0" standalone="no"?><!-- Generator: Gravit.io --><svg xmlns="http://www.w3.org/2000/svg" xmlns:xlink="http://www.w3.org/1999/xlink" style="isolation:isolate" viewBox="0 0 445 488.493" width="445" height="488.493"><defs><clipPath id="_clipPath_qO5g7Tk9n7VXi00jIQ4drhSWRqrMWX2F"><rect width="445" height="488.493"/></clipPath></defs><g clip-path="url(#_clipPath_qO5g7Tk9n7VXi00jIQ4drhSWRqrMWX2F)"><g><path d=" M 190.176 14.222 C 189.378 14.62 188.147 16.359 187.241 17.374 C 182.277 22.7 180.067 32.41 175.828 67.664 C 174.704 77.048 173.654 84.802 173.545 84.947 C 173.4 85.128 169.306 83.498 164.451 81.396 C 126.588 65.055 119.052 62.048 101.805 56.396 C 96.769 54.729 89.088 52.99 86.769 52.99 C 85.03 52.99 82.856 53.896 82.24 54.874 C 81.479 56.07 81.66 60.055 82.566 63.353 C 85.863 75.128 98.58 103.136 108.037 119.476 C 112.312 126.831 119.523 136.94 119.523 135.563 C 119.523 135.346 118.001 132.629 116.117 129.513 C 105.863 112.339 100.827 100.708 97.638 86.65 C 95.102 75.418 94.595 67.954 96.225 65.744 C 97.204 64.403 99.341 64.258 102.276 65.345 C 108.327 67.519 132.276 78.896 145.429 85.853 C 158.871 92.954 170.972 100.418 170.972 101.614 C 170.972 101.94 170.429 104.404 169.741 107.049 C 166.878 118.172 163.074 124.078 154.124 131.433 C 149.197 135.455 146.298 137.52 129.45 148.897 C 102.204 167.303 92.856 174.368 82.602 184.332 C 72.711 193.97 65.609 204.042 61.406 214.477 C 56.95 225.637 55.681 233.427 55.029 254.079 C 54.631 266.253 54.087 272.014 52.674 278.572 C 49.486 293.246 42.42 310.783 34.522 323.464 C 28.072 333.826 27.348 335.131 26.297 337.776 C 24.051 343.464 24.667 348.573 28.58 356.471 C 32.348 364.189 38.725 372.957 45.391 379.66 C 51.623 385.892 56.008 388.718 65.464 392.631 C 70.935 394.878 72.819 396.109 79.124 401.544 C 89.45 410.421 97.493 414.407 109.378 416.653 C 114.341 417.595 131.407 417.595 138.363 416.653 C 150.864 414.95 163.726 412.015 174.233 408.392 C 177.712 407.197 180.828 406.146 181.154 406.037 C 182.386 405.602 198.473 428.247 216.915 456.291 C 229.161 474.915 231.589 478.393 232.06 477.922 C 232.459 477.523 230.683 473.284 226.915 465.675 C 216.408 444.407 203.002 422.885 189.705 406.001 L 187.639 403.392 L 193.147 400.566 C 200.176 396.943 204.415 394.298 210.067 390.059 C 212.531 388.211 214.632 386.689 214.813 386.689 C 215.212 386.689 226.915 395.349 233.654 400.638 C 251.915 414.986 260.176 422.342 304.633 463.791 C 318.293 476.545 322.133 479.444 318.728 474.444 C 313.872 467.306 297.677 449.262 282.713 434.334 C 263.147 414.769 247.386 401.581 225.611 386.472 C 222.64 384.443 220.031 382.704 219.813 382.595 C 219.524 382.522 220.719 381.037 222.64 379.008 C 225.973 375.566 228.147 372.74 227.748 372.341 C 227.35 371.943 226.009 372.631 220.611 376.182 L 215.103 379.769 L 210.9 377.196 C 197.567 369.153 177.023 358.464 172.965 357.486 L 171.878 357.232 L 172.603 358.029 C 173.654 359.225 176.661 361.29 187.096 368.029 C 199.234 375.819 209.741 382.812 209.741 383.102 C 209.741 383.501 197.023 390.53 189.922 394.08 C 186.081 396.001 182.893 397.559 182.82 397.559 C 182.748 397.559 180.284 394.95 177.313 391.725 C 169.958 383.718 159.668 374.37 158.255 374.37 C 157.059 374.37 158.4 376.29 169.161 389.914 C 173.436 395.349 176.915 399.914 176.878 400.023 C 176.77 400.385 166.407 404.37 160.646 406.218 C 143.219 411.87 127.856 412.776 112.457 409.008 C 93.218 404.298 64.703 389.37 53.218 377.993 C 49.087 373.899 47.964 371.037 48.87 366.761 C 49.413 364.153 52.312 358.066 56.551 350.638 C 64.993 335.783 66.66 331.254 64.957 327.957 C 63.689 325.457 60.609 325.022 51.841 326.036 C 45.826 326.725 42.819 326.616 42.094 325.602 C 40.681 323.754 42.348 319.877 49.703 307.993 C 58.942 292.993 63.037 285.094 65.464 277.63 C 67.203 272.195 67.529 270.275 67.529 264.224 C 67.529 258.065 67.24 256.108 65.138 247.195 C 63.29 239.296 62.638 235.347 62.638 232.195 C 62.638 220.963 68.979 209.115 84.377 191.361 C 89.16 185.89 100.791 174.368 106.588 169.441 C 127.494 153.716 149.958 141.397 167.349 133.063 C 174.958 122.556 178.219 112.773 182.929 99.367 C 184.016 86.686 183.291 91.034 184.378 80.164 C 184.378 73.642 184.741 72.193 185.465 66.396 C 185.828 60.961 185.465 60.599 185.465 56.251 C 186.19 50.454 185.828 47.193 187.277 40.309 C 187.277 35.599 188.002 33.425 189.813 29.077 C 191.262 23.28 191.987 23.28 196.335 24.729 C 201.77 26.903 215.176 38.135 215.538 37.773 C 216.444 36.867 230.031 49.005 272.531 81.722 C 335.757 128.063 356.663 144.73 378.185 165.854 C 382.88 170.473 387.41 173.454 390.178 176.18 C 393.438 179.803 395.609 181.992 398.149 184.875 C 400.072 187.06 402.594 189.792 405.757 192.847 Q 413.728 201.542 417.352 206.615 Q 422.968 214.332 424.598 215.311 C 425.359 215.818 424.852 216.506 424.598 215.311 C 424.272 213.535 408.873 189.876 404.308 181.977 C 396.699 171.47 387.279 156.614 341.083 117.882 C 318.438 99.367 302.93 87.048 245.249 46.758 C 235.393 39.838 223.074 31.178 217.893 27.483 C 203.654 17.301 198.763 14.62 194.161 14.33 C 192.386 14.222 191.262 13.714 190.176 14.222 Z " fill="rgb(158,158,158)"/><path d=" M 120.066 231.253 C 114.74 231.724 106.878 232.992 103.037 233.97 C 97.566 235.347 95.283 236.905 95.791 238.934 C 95.935 239.441 97.131 241.217 98.472 242.883 C 101.588 246.796 103.544 249.623 106.878 254.949 C 110.138 260.275 112.747 263.137 115.428 264.441 C 121.153 267.231 130.791 264.913 140.574 258.354 C 146.443 254.441 149.777 250.637 153.364 243.68 C 155.791 239.079 157.349 237.702 162.349 235.818 L 164.487 235.021 L 163.11 234.586 C 161.153 234.006 151.697 232.448 146.153 231.796 C 140.501 231.108 125.139 230.818 120.066 231.253 Z " fill="rgb(158,158,158)"/><path d=" M 174.414 342.305 C 175.393 343.138 179.487 345.022 186.009 347.631 C 202.023 354.008 216.154 361.073 230.103 369.515 C 240.937 376.109 248.691 381.399 273.147 398.827 C 288.763 409.95 291.227 411.653 293.003 412.559 C 295.249 413.718 294.235 412.269 289.561 407.631 C 283.836 402.015 281.445 399.878 273.944 393.646 C 249.633 373.392 229.959 360.928 207.748 351.725 C 196.878 347.196 181.19 342.377 175.9 341.906 C 173.799 341.725 173.726 341.725 174.414 342.305 Z " fill="rgb(158,158,158)"/><path d=" M 192.046 23.431 C 210.685 39.658 226.476 59.177 235.463 80.663 Q 255.198 130 255.198 139.21 Q 247.304 143.157 214.413 143.157 C 211.123 114.212 211.781 135.263 202.572 139.868 C 203.39 136.306 204.49 116.793 199.282 110.265 Q 194.548 146.472 190.073 140.526 C 189.004 138.324 194.653 122.996 190.073 120.791 C 191.18 120.779 186.995 138.567 180.205 135.921 L 170.338 130.658 C 176.258 117.502 181.744 106.103 183.494 95.135 C 182.703 59.168 185.561 35.274 192.046 23.431 Z " fill="rgb(185,185,185)" vector-effect="non-scaling-stroke" stroke-width="1" stroke="rgb(185,185,185)" stroke-linejoin="miter" stroke-linecap="square" stroke-miterlimit="3"/><path d=" M 272.565 341.61 L 272.565 341.61 L 272.565 341.61 Q 272.815 341.932 273.065 342.254 L 273.065 342.254 L 273.716 343.091 L 273.716 343.091 Q 276.417 346.566 276.151 352.401 L 276.151 352.401 L 276.151 352.401 Q 275.884 358.235 274.081 363.354 L 274.081 363.354 L 274.081 363.354 Q 273.58 364.569 273.001 365.019 L 273.001 365.019 L 273.001 365.019 Q 271.906 365.87 269.955 364.754 L 269.955 364.754 L 269.955 364.754 Q 268.003 363.638 267.128 362.511 L 267.128 362.511 L 267.128 362.511 Q 266.252 361.385 266.188 359.576 L 266.188 359.576 L 266.188 359.576 Q 266.021 347.936 269.149 338.277 L 269.149 338.277 L 269.149 338.277 Q 269.736 336.375 271.377 335.1 L 271.377 335.1 L 271.377 335.1 Q 273.018 333.824 275.75 333.353 L 275.75 333.353 L 275.75 333.353 Q 279.554 332.668 282.655 336.659 L 282.655 336.659 L 282.655 336.659 Q 284.156 338.59 285.464 342.065 L 285.464 342.065 L 285.464 342.065 Q 286.771 345.54 287.757 348.336 L 287.757 348.336 L 287.757 348.336 Q 288.742 351.132 288.964 351.683 L 288.964 351.683 L 288.964 351.683 Q 289.802 346.385 288.847 336.389 L 288.847 336.389 L 288.847 336.389 Q 288.456 332.564 288.349 331.098 L 288.349 331.098 L 288.349 331.098 Q 287.594 323.218 287.151 321.188 L 287.151 321.188 L 287.151 321.188 Q 285.9 319.578 286.866 318.828 L 286.866 318.828 L 286.866 318.828 Q 287.509 318.328 289.004 318.457 L 289.004 318.457 L 289.004 318.457 Q 290.498 318.586 291.281 318.597 L 291.281 318.597 L 291.281 318.597 Q 292.064 318.608 292.414 319.059 L 292.414 319.059 L 292.414 319.059 Q 292.764 319.509 292.878 320.453 L 292.878 320.453 L 292.878 320.453 Q 296.556 335.148 294.59 355.467 L 294.59 355.467 L 294.59 355.467 Q 294.561 355.696 294.711 355.889 L 294.711 355.889 L 294.711 355.889 Q 295.461 356.855 297.65 355.154 L 297.65 355.154 L 297.65 355.154 Q 301.454 353.539 306.358 356.129 L 306.358 356.129 L 306.358 356.129 Q 307.016 356.444 310.104 358.225 L 310.104 358.225 L 310.104 358.225 Q 313.192 360.007 314.887 360.858 L 314.887 360.858 L 314.887 360.858 Q 316.731 361.903 317.697 361.152 L 317.697 361.152 L 317.697 361.152 Q 318.083 360.852 318.348 360.13 L 318.348 360.13 L 318.348 360.13 Q 318.612 359.408 318.805 359.258 L 318.805 359.258 L 318.805 359.258 Q 319.771 358.507 321.647 360.921 L 321.647 360.921 L 321.647 360.921 Q 323.523 363.335 323.877 364.454 L 323.877 364.454 L 323.877 364.454 Q 324.23 365.573 323.539 368.072 L 323.539 368.072 L 323.539 368.072 Q 322.849 370.57 321.786 371.396 L 321.786 371.396 L 321.786 371.396 Q 320.724 372.221 317.132 371.451 L 317.132 371.451 L 317.132 371.451 Q 313.539 370.682 307.37 366.597 L 307.37 366.597 L 307.37 366.597 Q 301.201 362.512 299.671 361.739 L 299.671 361.739 L 299.671 361.739 Q 297.662 360.616 296.665 361.392 L 296.665 361.392 L 296.665 361.392 Q 295.667 362.167 295.867 363.819 L 295.867 363.819 L 295.867 363.819 Q 296.066 365.471 294.986 366.207 L 294.986 366.207 L 294.986 366.207 Q 297.523 371.463 299.649 374.198 L 299.649 374.198 L 299.649 374.198 Q 301.775 376.934 302.869 377.942 L 302.869 377.942 L 302.869 377.942 Q 303.963 378.951 304.463 379.595 L 304.463 379.595 L 304.463 379.595 Q 304.963 380.238 304.712 381.775 L 304.712 381.775 L 304.712 381.775 Q 304.462 383.313 303.593 383.988 L 303.593 383.988 L 303.593 383.988 Q 302.724 384.663 300.336 384.248 L 300.336 384.248 L 300.336 384.248 Q 298.849 384.061 298.284 383.468 L 298.284 383.468 L 298.284 383.468 Q 297.205 382.345 295.525 380.45 L 295.525 380.45 L 295.525 380.45 Q 293.845 378.554 292.695 377.074 L 292.695 377.074 L 292.695 377.074 Q 288.843 372.118 286.117 366.286 L 286.117 366.286 L 286.117 366.286 Q 283.391 360.454 280.598 352.61 L 280.598 352.61 L 280.598 352.61 Q 276.519 341.118 275.519 339.831 L 275.519 339.831 L 275.519 339.831 Q 274.518 338.544 273.36 339.444 L 273.36 339.444 L 273.36 339.444 Q 271.943 340.545 272.565 341.61 Z  M 333.16 345.313 L 333.16 345.313 L 333.16 345.313 Q 335.236 358.877 332.468 361.028 L 332.468 361.028 L 332.468 361.028 Q 330.473 362.579 326.963 361.384 L 326.963 361.384 L 326.963 361.384 Q 326.012 361.091 324.421 360.107 L 324.421 360.107 L 324.421 360.107 Q 322.831 359.123 321.19 358.54 L 321.19 358.54 L 321.19 358.54 Q 319.549 357.957 318.024 355.993 L 318.024 355.993 L 318.024 355.993 Q 316.498 354.03 316.069 351.885 L 316.069 351.885 L 316.069 351.885 Q 313.243 337.355 316.099 328.941 L 316.099 328.941 L 316.099 328.941 Q 316.421 327.761 317.451 326.961 L 317.451 326.961 L 317.451 326.961 Q 318.481 326.16 320.926 326.118 L 320.926 326.118 L 320.926 326.118 Q 322.527 326.319 323.221 326.812 L 323.221 326.812 L 323.221 326.812 Q 324.643 327.978 324.893 328.3 L 324.893 328.3 L 324.893 328.3 Q 327.747 327.322 329.347 329.381 L 329.347 329.381 L 329.347 329.381 Q 330.448 330.797 333.553 336.386 L 333.553 336.386 L 333.553 336.386 Q 336.658 341.975 338.43 344.521 L 338.43 344.521 L 338.43 344.521 Q 339.481 345.873 340.382 345.172 L 340.382 345.172 L 340.382 345.172 Q 341.412 344.372 341.281 338.691 L 341.281 338.691 L 341.281 338.691 Q 341.151 333.01 341.537 332.71 L 341.537 332.71 L 341.537 332.71 Q 342.181 332.21 343.832 334.334 L 343.832 334.334 L 346.154 337.588 L 346.154 337.588 Q 347.555 339.39 348.372 343.763 L 348.372 343.763 L 348.372 343.763 Q 349.19 348.135 346.679 350.086 L 346.679 350.086 L 346.679 350.086 Q 345.134 351.287 343.433 350.958 L 343.433 350.958 L 343.433 350.958 Q 342.861 350.886 341.467 350.421 L 341.467 350.421 L 341.467 350.421 Q 337.22 349.075 333.16 345.313 Z  M 322.183 329.994 L 322.183 329.994 L 322.183 329.994 Q 319.826 343.7 325.042 354.927 L 325.042 354.927 L 325.042 354.927 Q 327.19 344.274 322.183 329.994 Z  M 339.958 308.228 L 339.958 308.228 L 344.843 304.018 L 344.843 304.018 Q 346.838 302.468 348.839 305.042 L 348.839 305.042 L 348.839 305.042 Q 349.84 306.33 349.503 307.624 L 349.503 307.624 L 349.503 307.624 Q 348.895 311.091 344.424 315.701 L 344.424 315.701 L 344.424 315.701 Q 348.533 322.317 351.685 326.372 L 351.685 326.372 L 351.685 326.372 Q 354.837 330.427 355.416 329.976 L 355.416 329.976 L 355.416 329.976 Q 355.802 329.676 356.519 325.816 L 356.519 325.816 L 356.519 325.816 Q 357.235 321.955 357.492 321.755 L 357.492 321.755 L 357.492 321.755 Q 358.587 320.904 361.163 324.219 L 361.163 324.219 L 361.163 324.219 Q 363.74 327.534 365.018 331.703 L 365.018 331.703 L 365.018 331.703 Q 366.296 335.872 364.044 337.623 L 364.044 337.623 L 364.044 337.623 Q 363.078 338.373 361.587 338.448 L 361.587 338.448 L 361.587 338.448 Q 360.097 338.522 359.088 338.222 L 359.088 338.222 L 359.088 338.222 Q 358.08 337.921 356.161 337.245 L 356.161 337.245 L 356.161 337.245 Q 354.241 336.568 353.848 336.461 L 353.848 336.461 L 353.848 336.461 Q 350.259 335.43 348.272 333.206 L 348.272 333.206 L 348.272 333.206 Q 346.285 330.982 343.834 327.828 L 343.834 327.828 L 343.834 327.828 Q 341.382 324.674 338.917 320.705 L 338.917 320.705 L 338.917 320.705 Q 336.872 322.191 334.502 321.865 L 334.502 321.865 L 334.502 321.865 Q 332.131 321.539 329.915 320.215 L 329.915 320.215 L 329.915 320.215 Q 327.699 318.892 327.499 318.634 L 327.499 318.634 L 327.499 318.634 Q 326.849 317.798 327.814 317.047 L 327.814 317.047 L 334.294 312.631 L 334.294 312.631 Q 333.065 310.385 331.021 306.295 L 331.021 306.295 L 331.021 306.295 Q 328.113 300.295 327.463 299.458 L 327.463 299.458 L 326.383 298.335 L 326.383 298.335 Q 325.583 297.305 326.742 296.405 L 326.742 296.405 L 326.742 296.405 Q 327.9 295.504 330.474 295.362 L 330.474 295.362 L 330.474 295.362 Q 333.048 295.22 333.849 296.25 L 333.849 296.25 L 333.849 296.25 Q 334.199 296.7 334.799 298.402 L 334.799 298.402 L 334.799 298.402 Q 335.821 300.912 339.958 308.228 Z  M 356.586 296.543 L 356.586 296.543 L 357.823 295.479 L 357.823 295.479 Q 361.106 292.927 363.644 292.606 L 363.644 292.606 L 363.644 292.606 Q 366.182 292.285 369.979 293.981 L 369.979 293.981 L 369.979 293.981 Q 371.473 294.575 372.398 295.766 L 372.398 295.766 L 372.398 295.766 Q 373.324 296.957 373.123 298.558 L 373.123 298.558 L 373.123 298.558 Q 372.75 302.462 371.114 309.722 L 371.114 309.722 L 371.114 309.722 Q 369.477 316.983 369.177 318.455 L 369.177 318.455 L 375.091 313.445 L 375.091 313.445 Q 377.022 311.944 378.02 311.634 L 378.02 311.634 L 378.02 311.634 Q 379.017 311.323 379.75 311.734 L 379.75 311.734 L 379.75 311.734 Q 380.483 312.146 381.584 313.562 L 381.584 313.562 L 381.584 313.562 Q 382.684 314.978 381.611 316.121 L 381.611 316.121 L 381.611 316.121 Q 379.916 318.059 375.71 324.735 L 375.71 324.735 L 375.71 324.735 Q 374.837 326.136 373.549 327.137 L 373.549 327.137 L 373.549 327.137 Q 372.262 328.137 370.31 327.486 L 370.31 327.486 L 370.31 327.486 Q 365.842 325.59 364.542 323.916 L 364.542 323.916 L 364.542 323.916 Q 363.241 322.243 363.234 319.976 L 363.234 319.976 L 363.234 319.976 Q 363.329 315.979 364.415 308.476 L 364.415 308.476 L 364.415 308.476 Q 365.5 300.972 365.594 299.764 L 365.594 299.764 L 365.594 299.764 Q 358.405 307.519 357.375 308.32 L 357.375 308.32 L 357.375 308.32 Q 356.346 309.12 355.591 309.345 L 355.591 309.345 L 355.591 309.345 Q 354.837 309.57 354.015 309.177 L 354.015 309.177 L 354.015 309.177 Q 351.713 308.075 350.412 306.401 L 350.412 306.401 L 350.412 306.401 Q 348.311 303.698 351.938 297.471 L 351.938 297.471 L 351.938 297.471 Q 352.174 296.978 352.625 296.628 L 352.625 296.628 L 352.625 296.628 Q 353.461 295.978 354.391 296.907 L 354.391 296.907 L 354.391 296.907 Q 355.234 297.594 356.586 296.543 Z  M 402.033 291.783 L 402.033 291.783 L 402.033 291.783 Q 409.637 301.566 399.725 309.271 L 399.725 309.271 L 399.725 309.271 Q 395.605 312.473 392.055 311.824 L 392.055 311.824 L 392.055 311.824 Q 388.506 311.176 383.688 307.9 L 383.688 307.9 L 383.688 307.9 Q 381.872 306.626 380.396 304.728 L 380.396 304.728 L 380.396 304.728 Q 378.92 302.829 378.15 298.317 L 378.15 298.317 L 378.15 298.317 Q 377.379 293.805 377.588 289.822 L 377.588 289.822 L 377.588 289.822 Q 375.093 286.082 376.445 285.032 L 376.445 285.032 L 376.445 285.032 Q 377.153 284.481 378.061 285.118 L 378.061 285.118 L 378.061 285.118 Q 378.462 282.844 379.493 280.185 L 379.493 280.185 L 379.493 280.185 Q 380.523 277.525 382.068 276.325 L 382.068 276.325 L 382.068 276.325 Q 383.613 275.124 386.655 275.651 L 386.655 275.651 L 386.655 275.651 Q 389.697 276.177 391.173 278.076 L 391.173 278.076 L 391.173 278.076 Q 392.649 279.975 392.561 285.309 L 392.561 285.309 L 392.561 285.309 Q 392.408 295.34 389.575 297.541 L 389.575 297.541 L 389.575 297.541 Q 387.516 299.142 383.706 296.631 L 383.706 296.631 L 383.706 296.631 Q 383.741 296.81 383.92 298.169 L 383.92 298.169 L 383.92 298.169 Q 384.098 299.527 384.223 300.153 L 384.223 300.153 L 384.223 300.153 Q 384.348 300.778 384.562 301.851 L 384.562 301.851 L 384.562 301.851 Q 385.069 303.832 385.969 304.99 L 385.969 304.99 L 385.969 304.99 Q 388.021 307.629 390.66 305.578 L 390.66 305.578 L 390.66 305.578 Q 395.037 302.176 396.668 297.966 L 396.668 297.966 L 396.668 297.966 Q 398.3 293.755 398.423 287.67 L 398.423 287.67 L 398.423 287.67 Q 400.882 290.302 402.033 291.783 Z  M 385.487 292.149 L 385.487 292.149 Q 386.517 291.348 386.594 287.262 L 386.594 287.262 L 386.594 287.262 Q 386.67 283.176 385.945 282.243 L 385.945 282.243 L 385.945 282.243 Q 385.219 281.309 384.544 281.835 L 384.544 281.835 L 384.544 281.835 Q 383.868 282.36 383.527 285.309 L 383.527 285.309 L 383.527 285.309 Q 383.186 288.258 383.172 290.232 L 383.172 290.232 L 383.172 290.232 Q 383.643 291.104 383.943 291.49 L 383.943 291.49 L 383.943 291.49 Q 384.844 292.649 385.487 292.149 L 385.487 292.149 Z " fill-rule="evenodd" fill="rgb(116,116,116)"/></g></g></svg>