<?xml version="1.0" standalone="no"?>
<!DOCTYPE svg PUBLIC "-//W3C//DTD SVG 20010904//EN"
 "http://www.w3.org/TR/2001/REC-SVG-20010904/DTD/svg10.dtd">
<svg version="1.0" xmlns="http://www.w3.org/2000/svg"
 width="477.000000pt" height="465.000000pt" viewBox="0 0 477.000000 465.000000"
 preserveAspectRatio="xMidYMid meet">

<g transform="translate(0.000000,465.000000) scale(0.100000,-0.100000)"
fill="#000000" stroke="none">
<path d="M0 4355 c0 -256 2 -295 15 -295 8 0 15 -5 15 -10 0 -6 -6 -9 -12 -8
-9 2 -14 -19 -16 -74 -3 -73 -2 -76 18 -71 24 6 25 11 3 35 -16 18 -15 18 17
4 34 -14 59 -45 26 -33 -10 4 -16 1 -16 -8 0 -8 -7 -15 -15 -15 -9 0 -15 -9
-15 -25 0 -14 -4 -25 -10 -25 -5 0 -10 -18 -10 -40 0 -22 3 -39 8 -38 4 2 23
-9 42 -24 19 -14 43 -28 53 -29 20 -4 19 -25 0 -23 -7 1 -13 -7 -13 -17 0 -14
7 -19 25 -19 14 0 25 -4 25 -10 0 -5 -9 -10 -19 -10 -35 0 -33 -19 2 -34 19
-8 38 -19 41 -25 11 -17 -20 -13 -38 4 -8 8 -21 15 -29 15 -8 0 -18 11 -21 25
-4 16 -13 25 -25 25 -11 0 -26 3 -35 6 -12 4 -16 0 -16 -15 0 -12 6 -21 15
-21 8 0 15 -4 15 -10 0 -5 -7 -7 -15 -4 -13 5 -15 -8 -15 -85 0 -68 3 -91 13
-91 16 0 97 -38 97 -46 0 -7 -27 -34 -34 -34 -3 0 -6 9 -6 20 0 13 -7 20 -19
20 -41 0 -51 -11 -51 -56 0 -39 3 -44 23 -44 12 0 29 -9 37 -20 14 -20 47 -29
35 -10 -3 6 -2 10 4 10 21 0 19 -18 -3 -28 -18 -8 -29 -7 -42 2 -52 35 -52 36
-53 -127 -1 -107 3 -153 11 -158 9 -6 9 -14 0 -34 -7 -14 -12 -37 -12 -52 0
-22 3 -25 30 -21 l30 5 -31 -26 c-25 -22 -30 -32 -27 -61 3 -30 7 -36 33 -41
l30 -6 -25 -10 c-14 -6 -28 -9 -32 -6 -5 2 -8 -5 -8 -16 0 -15 6 -21 21 -21
12 0 19 -5 16 -12 -2 -7 -11 -12 -21 -10 -11 2 -16 -4 -16 -18 0 -14 4 -19 12
-14 8 5 9 0 4 -17 -18 -59 -19 -69 -2 -69 9 0 16 -6 16 -14 0 -8 3 -22 6 -30
5 -12 2 -15 -10 -10 -9 3 -16 2 -16 -4 0 -6 -3 -17 -6 -26 -4 -11 -1 -16 10
-16 17 0 22 -15 7 -24 -5 -4 -12 0 -14 6 -3 7 -6 4 -6 -8 -1 -11 5 -26 12 -33
9 -11 9 -13 0 -7 -9 5 -13 -3 -13 -28 0 -21 5 -36 12 -36 9 0 9 -3 0 -12 -8
-8 -12 -53 -12 -135 l0 -123 66 0 c55 0 65 3 60 15 -3 8 -2 15 2 16 4 0 20 2
36 4 l30 4 -32 -19 c-20 -12 -32 -28 -32 -41 0 -16 -5 -20 -27 -17 -18 2 -27
-2 -26 -9 2 -7 -5 -12 -15 -11 -40 3 -62 -3 -62 -17 0 -19 32 -33 38 -17 5 15
32 16 32 2 0 -5 7 -10 15 -10 8 0 15 4 15 8 0 9 70 42 90 42 26 0 -30 -47 -73
-60 -23 -8 -46 -17 -52 -20 -5 -4 -22 -10 -38 -14 l-27 -6 0 -568 c0 -428 3
-571 12 -580 9 -9 9 -15 0 -24 -7 -7 -12 -22 -12 -35 0 -19 4 -23 25 -19 37 7
39 -10 5 -34 -19 -14 -30 -30 -30 -46 0 -24 0 -24 36 -9 20 8 48 15 63 15 15
0 35 6 46 14 24 16 115 32 100 17 -5 -5 -50 -22 -100 -38 -75 -25 -90 -33 -96
-54 -9 -35 7 -50 38 -38 30 11 41 5 24 -15 -17 -21 5 -31 25 -12 17 18 28 21
19 7 -3 -5 -1 -13 5 -16 6 -4 10 -14 9 -23 -3 -39 3 -52 32 -67 22 -12 29 -21
24 -33 -4 -9 -8 -22 -9 -29 -1 -7 -5 -16 -9 -19 -11 -11 -8 -46 4 -42 11 4 43
58 53 91 5 17 7 17 27 -2 16 -15 20 -27 15 -45 -3 -14 -2 -26 3 -26 5 0 16 -7
25 -15 12 -13 13 -21 4 -40 -6 -14 -15 -25 -20 -25 -4 0 -8 -5 -8 -10 0 -6 -9
-21 -21 -33 -14 -15 -19 -30 -15 -48 3 -14 0 -31 -7 -38 -8 -8 -7 -11 5 -11 9
0 20 5 23 10 3 6 11 10 17 10 7 0 6 -6 -2 -15 -11 -13 17 -15 241 -14 140 1
246 3 236 6 -14 4 -16 8 -7 18 24 29 48 85 36 85 -6 0 -3 7 7 14 12 9 14 16 8
21 -6 3 -11 3 -11 -1 0 -3 -7 -1 -15 6 -8 7 -22 10 -31 6 -12 -5 -14 -1 -9 15
5 16 4 19 -5 14 -9 -6 -10 1 -5 24 7 32 -2 40 -23 19 -22 -22 -14 31 9 64 23
32 19 49 -6 28 -23 -19 -30 -4 -11 25 13 20 15 30 6 40 -6 8 -10 29 -9 47 2
18 0 39 -5 46 -4 6 -4 17 -1 23 4 5 -1 19 -10 29 -11 13 -15 26 -10 37 19 45
3 82 -30 69 -21 -8 -19 10 3 20 9 4 40 8 67 10 28 1 42 0 33 -3 -10 -2 -18
-13 -18 -24 0 -14 7 -19 26 -19 14 0 23 4 20 9 -6 10 22 37 29 29 3 -3 -10
-22 -30 -43 -19 -22 -35 -45 -35 -52 0 -18 5 -17 36 12 38 35 42 23 6 -16 -31
-33 -34 -53 -7 -42 11 4 15 -2 15 -20 0 -18 -8 -28 -30 -37 -17 -7 -30 -17
-30 -22 0 -5 8 -4 19 2 24 13 52 3 44 -16 -8 -22 6 -16 31 13 14 16 27 23 35
19 9 -6 8 -13 -6 -30 -11 -11 -27 -34 -37 -49 -17 -27 -16 -28 6 -47 20 -16
21 -21 10 -39 -10 -18 -10 -21 3 -21 8 0 15 -8 15 -17 0 -14 2 -15 9 -4 5 7
14 10 20 6 7 -4 22 4 36 19 22 24 18 45 -5 31 -18 -11 -11 11 9 29 11 10 26
16 33 14 7 -3 21 5 31 16 18 21 18 20 2 -9 -31 -59 -70 -123 -86 -142 -9 -10
-21 -27 -27 -39 -12 -22 -4 -104 9 -104 5 0 9 -5 9 -10 0 -6 12 -22 28 -35
l27 -24 1753 -1 c1040 0 1751 3 1748 9 -8 12 62 19 73 8 11 -11 31 0 31 17 0
8 10 12 27 10 56 -6 129 -5 151 1 19 6 22 14 22 54 0 26 -6 53 -13 60 -9 11
-9 13 1 7 8 -5 12 0 12 14 0 11 -7 23 -15 26 -8 4 -15 11 -15 16 0 6 7 8 15 4
9 -3 15 0 15 9 0 8 -8 12 -20 10 -12 -2 -20 2 -20 10 0 8 7 11 20 8 23 -6 28
15 8 35 -9 9 -9 12 0 12 18 0 17 3749 0 3751 -7 1 -17 0 -23 -1 -5 -2 -18 -4
-28 -5 -18 -1 -54 -55 -36 -55 5 0 9 5 9 10 0 6 5 10 10 10 7 0 7 -6 0 -20 -8
-14 -19 -19 -40 -16 -16 2 -31 -1 -33 -7 -1 -5 -30 -11 -62 -13 -46 -2 -61 -6
-66 -21 -4 -10 -8 -12 -8 -5 -1 6 -9 12 -18 12 -22 -1 -64 -30 -43 -30 10 0
11 -3 3 -11 -9 -9 -16 -7 -29 5 -19 20 -95 19 -102 -1 -2 -7 4 -13 13 -13 9 0
13 -4 10 -10 -9 -15 -44 -12 -62 6 -22 21 -78 15 -77 -9 1 -10 -3 -16 -10 -14
-6 3 -26 -2 -44 -9 -38 -15 -29 -14 -92 -14 -28 0 -50 -5 -50 -10 0 -7 37 -11
98 -11 154 0 158 0 144 -5 -6 -3 -12 -14 -12 -25 0 -10 -7 -19 -15 -19 -8 0
-15 9 -15 20 0 24 -13 25 -43 6 -12 -8 -36 -14 -53 -14 -34 1 -54 -8 -54 -24
0 -6 10 -8 25 -4 20 5 25 3 25 -14 0 -11 5 -20 12 -20 6 0 9 -3 6 -6 -4 -3
-15 -1 -26 5 -11 6 -23 6 -28 1 -13 -12 -89 -20 -119 -11 -14 3 -32 17 -39 31
-7 14 -19 23 -27 21 -33 -10 -273 -3 -277 8 -3 8 26 11 95 11 125 1 206 18
178 38 -6 4 -10 13 -11 20 -1 6 -2 19 -2 27 -1 8 -10 15 -19 15 -15 0 -15 2
-4 9 12 8 12 12 -2 26 -10 9 -17 13 -17 9 0 -4 -9 1 -19 10 -15 14 -24 15 -40
7 -25 -14 -71 -14 -71 -1 0 6 -9 10 -20 10 -25 0 -25 9 -2 26 16 12 16 13 0
14 -9 0 -21 7 -26 16 -6 11 -11 13 -16 5 -4 -6 -14 -11 -22 -11 -11 0 -12 4
-5 19 12 21 5 31 -21 31 -22 0 -23 9 -3 24 10 8 12 15 5 26 -9 13 -12 13 -21
-2 -13 -24 -41 -23 -56 1 -11 18 -15 18 -59 5 -59 -18 -74 -17 -50 1 17 13 17
15 2 21 -9 3 -33 3 -54 -2 -20 -4 -41 -9 -47 -10 -5 -1 -14 -3 -20 -4 -5 -2
-14 -4 -20 -4 -23 -4 -55 -28 -55 -42 0 -8 5 -12 10 -9 18 11 23 -25 6 -44 -9
-10 -16 -27 -16 -39 0 -12 -9 -26 -21 -32 -17 -9 -23 -8 -33 6 -13 17 -36 12
-36 -8 0 -6 -7 -20 -16 -29 -9 -10 -17 -36 -18 -58 0 -29 -5 -41 -18 -45 -21
-5 -22 2 -8 40 8 19 8 30 0 38 -17 17 -11 25 13 18 19 -5 20 -3 9 10 -9 11 -9
18 -3 23 11 6 -7 45 -21 45 -4 0 -13 -19 -19 -42 -7 -24 -17 -49 -22 -55 -5
-7 -6 -24 -3 -39 5 -20 3 -27 -13 -31 -19 -5 -38 -38 -33 -57 2 -4 -4 -30 -13
-57 -17 -50 -13 -74 11 -65 17 7 17 4 2 -29 -6 -14 -15 -25 -20 -25 -5 0 -6
-4 -3 -10 3 -5 0 -8 -7 -5 -9 4 -13 24 -12 60 1 107 -26 31 -31 -89 -2 -37 -6
-74 -9 -82 -3 -7 -1 -16 4 -19 6 -4 10 -11 10 -17 0 -7 -5 -6 -14 1 -12 10
-17 8 -26 -9 -21 -39 -28 -10 -10 43 18 53 18 129 0 135 -5 2 -10 12 -10 23 0
10 -4 19 -10 19 -5 0 -10 7 -10 15 0 18 20 20 20 3 0 -7 5 -5 11 5 11 19 3 41
-12 32 -5 -4 -9 -1 -9 4 0 6 -4 11 -10 11 -13 0 -13 -97 -1 -104 5 -4 3 -19
-6 -37 -8 -17 -12 -33 -9 -36 4 -4 12 8 18 25 7 18 15 32 19 32 11 0 -3 -83
-17 -105 -14 -19 -14 -19 -14 3 0 12 -4 22 -10 22 -5 0 -10 -9 -10 -21 0 -11
-4 -17 -10 -14 -7 4 -8 24 -4 51 7 49 -2 114 -16 114 -12 0 -13 -37 -1 -44 4
-3 6 -17 3 -31 -3 -19 -11 -25 -29 -25 -20 0 -23 4 -18 20 3 11 0 29 -8 40
-13 18 -15 19 -21 5 -9 -26 -7 -65 4 -65 6 0 10 -16 10 -35 0 -39 -24 -49 -35
-15 -10 31 -24 24 -16 -7 5 -16 13 -27 20 -25 16 3 14 -13 -4 -28 -8 -7 -15
-21 -15 -31 0 -10 -5 -21 -12 -25 -8 -5 -9 3 -5 29 4 25 2 37 -9 41 -8 3 -14
16 -14 28 l0 23 -20 -25 c-25 -32 -25 -75 0 -103 12 -12 16 -23 10 -25 -16 -6
-12 -22 6 -22 11 0 14 -6 9 -22 -6 -22 -6 -22 9 -4 15 19 16 19 16 -6 0 -15 5
-30 10 -33 6 -3 10 -12 9 -18 0 -9 -2 -9 -6 1 -2 6 -11 12 -18 12 -7 0 -15 -6
-18 -12 -7 -21 -18 -2 -24 40 -5 34 -9 40 -28 38 -12 -2 -27 -6 -33 -10 -13
-8 -17 16 -5 28 11 11 13 76 2 76 -5 0 -9 19 -8 43 1 64 -3 77 -21 77 -13 0
-16 -11 -16 -62 0 -96 -56 -228 -66 -158 -4 23 0 34 14 41 10 5 18 19 18 29 0
11 5 20 10 20 6 0 10 5 10 10 0 24 -29 8 -32 -17 -2 -16 -7 -27 -13 -25 -13 3
-6 95 9 104 6 5 2 8 -11 8 -18 0 -24 -8 -29 -36 -5 -29 -9 -33 -16 -20 -5 9
-7 20 -4 25 3 5 0 23 -8 41 -13 31 -32 28 -20 -3 3 -10 -3 -20 -17 -27 -19
-11 -21 -10 -16 5 5 11 3 15 -5 13 -8 -3 -17 -34 -21 -76 -5 -40 -13 -72 -18
-72 -5 0 -9 6 -9 14 0 7 -6 19 -14 25 -11 9 -15 8 -20 -6 -6 -15 -8 -15 -17
-3 -8 11 -9 9 -4 -9 5 -15 2 -27 -6 -32 -23 -14 -30 -10 -25 15 2 13 1 40 -4
60 -7 32 -6 35 12 33 11 -2 23 -9 28 -17 6 -9 10 -7 15 9 8 26 -11 52 -34 49
-10 -2 -17 5 -17 17 -1 11 -2 26 -3 33 -1 6 -5 12 -11 12 -6 0 -10 -27 -10
-60 0 -66 -11 -76 -32 -30 -14 33 -33 41 -23 10 4 -11 2 -20 -4 -20 -17 0 -13
-37 5 -44 13 -5 15 -2 11 14 -3 11 -1 18 4 14 5 -3 9 -13 9 -24 0 -10 6 -20
14 -23 7 -3 16 -20 18 -39 3 -18 8 -41 13 -50 5 -13 3 -18 -9 -18 -9 0 -16 7
-16 16 0 9 -9 24 -19 33 -20 18 -43 66 -69 146 -14 43 -17 46 -20 23 -2 -14 6
-46 16 -70 18 -39 27 -98 14 -98 -2 0 -11 8 -18 18 -11 14 -15 15 -23 3 -7
-11 -14 -4 -29 27 -22 45 -18 61 9 36 16 -15 17 -14 12 5 -3 12 -13 21 -22 21
-9 0 -23 6 -30 13 -18 17 -3 -62 15 -84 8 -8 14 -26 14 -39 0 -19 -2 -21 -16
-9 -13 11 -17 10 -26 -4 -13 -24 -28 -12 -28 24 0 19 5 29 15 29 8 0 15 5 15
11 0 5 -4 7 -10 4 -18 -11 -32 5 -19 22 10 11 9 20 -5 44 -13 22 -15 33 -7 43
20 24 -1 25 -27 1 -23 -22 -25 -28 -15 -52 12 -33 22 -61 16 -50 -9 14 -24 7
-22 -10 4 -41 -1 -47 -17 -27 -15 18 -15 18 -9 -9 5 -25 4 -26 -14 -15 -15 9
-17 16 -9 34 9 18 7 29 -7 50 -12 19 -19 23 -25 14 -4 -7 -13 -9 -19 -6 -6 4
-11 2 -11 -5 0 -8 -10 -9 -31 -5 -24 4 -35 2 -45 -11 -17 -23 -18 -34 -1 -28
7 3 13 -4 13 -20 1 -14 -2 -25 -7 -25 -16 0 -10 -28 7 -34 9 -4 14 -9 11 -12
-11 -12 -52 31 -51 53 1 12 -7 30 -17 39 -11 10 -19 23 -19 30 0 7 -6 15 -12
17 -10 4 -10 7 0 15 9 6 10 15 3 35 -12 31 -25 37 -16 7 3 -11 2 -20 -4 -20
-11 0 -57 71 -53 83 1 4 -7 7 -18 7 -11 0 -20 -6 -20 -14 0 -7 -8 -17 -17 -20
-10 -4 -31 -13 -46 -22 -22 -12 -31 -13 -42 -4 -11 9 -24 7 -57 -11 -24 -13
-51 -30 -60 -37 -10 -8 -24 -12 -32 -9 -8 3 -32 -2 -53 -13 -21 -10 -56 -21
-78 -25 -22 -4 -53 -14 -68 -22 -16 -8 -34 -12 -41 -10 -17 7 -61 -18 -47 -27
22 -14 10 -26 -28 -26 -49 0 -95 22 -79 38 8 8 8 15 -1 26 -10 12 -10 19 3 37
11 16 12 27 5 40 -10 19 3 35 21 24 6 -3 10 -2 10 4 0 5 -6 11 -12 14 -10 4
-10 7 0 18 14 16 16 49 2 49 -5 0 -10 -8 -11 -17 0 -14 -2 -13 -9 5 -5 12 -16
25 -25 28 -8 4 -15 11 -15 17 0 7 4 7 12 -1 16 -16 29 -15 22 2 -6 16 22 30
56 27 20 -3 22 0 12 11 -6 8 -9 23 -6 35 4 14 -1 26 -17 37 -24 17 -24 17 33
21 38 3 100 46 87 61 -7 8 -6 13 2 16 9 3 7 12 -5 30 -17 26 -17 26 3 21 15
-4 21 -1 21 11 0 10 5 14 10 11 6 -3 10 -2 10 4 0 5 -5 11 -12 13 -7 3 -9 12
-5 22 6 16 9 16 22 2 9 -8 22 -13 30 -10 15 6 21 24 7 24 -4 0 -13 9 -20 21
-12 18 -11 19 7 10 36 -20 54 -14 47 14 -5 19 -2 25 10 25 20 0 42 22 36 38
-2 7 2 10 12 6 9 -3 16 -2 16 4 0 5 -7 13 -16 16 -9 4 -14 10 -10 14 8 8 14 9
51 11 18 1 23 5 18 18 -5 13 -2 15 15 11 22 -6 30 6 12 17 -17 10 -11 27 8 22
73 -20 75 -20 70 13 -3 17 -1 33 4 36 4 3 8 -1 8 -9 0 -8 11 -18 24 -21 13 -3
32 -9 41 -12 14 -6 16 -3 10 14 -7 25 7 29 25 7 19 -22 32 -18 19 6 -10 20 -9
21 23 17 18 -3 42 -9 52 -13 16 -7 18 -5 13 9 -6 15 -4 17 10 10 10 -4 36 -8
58 -9 22 0 50 -6 62 -13 18 -10 28 -9 58 5 35 17 38 17 50 0 7 -10 19 -15 29
-11 9 3 23 1 31 -6 13 -10 19 -10 33 4 10 9 22 13 26 9 9 -9 77 -4 91 7 6 5
16 5 23 1 18 -11 65 -1 75 15 5 9 14 10 37 1 23 -9 35 -9 48 0 12 7 24 8 36 1
12 -7 24 -5 41 6 13 9 30 13 38 10 8 -3 18 -1 22 5 3 6 19 11 35 11 15 0 30 5
32 11 2 7 12 7 30 0 16 -6 38 -7 57 -1 16 4 32 6 35 2 3 -3 6 0 6 6 0 7 11 12
25 12 18 0 25 5 25 20 0 18 -3 19 -21 10 -16 -9 -24 -8 -38 4 -10 9 -25 14
-35 10 -11 -4 -16 -1 -16 10 0 9 6 18 13 21 6 2 163 13 347 25 184 11 506 31
715 45 668 43 716 46 960 60 132 8 252 15 268 15 l27 0 0 85 0 85 -2385 0
-2385 0 0 -295z m1000 -35 c0 -5 -4 -10 -10 -10 -5 0 -10 5 -10 10 0 6 5 10
10 10 6 0 10 -4 10 -10z m30 -138 c0 -15 -2 -15 -10 -2 -13 20 -13 33 0 25 6
-3 10 -14 10 -23z m190 -3 c0 -11 -7 -19 -16 -19 -11 0 -14 5 -10 16 3 9 6 20
6 25 0 6 5 7 10 4 6 -3 10 -15 10 -26z m-320 -30 c17 -31 7 -33 -20 -4 -19 20
-20 25 -7 25 9 0 21 -9 27 -21z m-471 -33 c-3 -3 -11 5 -18 17 -13 21 -12 21
5 5 10 -10 16 -20 13 -22z m361 3 c0 -11 -4 -17 -10 -14 -5 3 -10 13 -10 21 0
8 5 14 10 14 6 0 10 -9 10 -21z m-740 -39 c13 -9 13 -10 0 -10 -8 0 -22 5 -30
10 -13 9 -13 10 0 10 8 0 22 -5 30 -10z m3465 -41 c0 -8 -10 -15 -22 -17 -25
-4 -30 7 -11 26 15 15 33 10 33 -9z m-2790 -37 c-9 -9 -35 8 -35 24 0 16 2 16
20 -1 11 -10 18 -20 15 -23z m385 23 c5 3 10 1 10 -4 0 -17 -26 -13 -41 7 -13
15 -12 16 3 4 9 -8 22 -11 28 -7z m-45 -25 c10 -11 14 -20 8 -20 -5 0 -18 9
-28 20 -10 11 -14 20 -8 20 5 0 18 -9 28 -20z m-1010 -39 c-11 -10 -35 11 -35
31 l0 23 20 -25 c10 -14 17 -26 15 -29z m295 28 c0 -6 -4 -7 -10 -4 -5 3 -10
11 -10 16 0 6 5 7 10 4 6 -3 10 -11 10 -16z m2890 17 c0 -3 -4 -8 -10 -11 -5
-3 -10 -1 -10 4 0 6 5 11 10 11 6 0 10 -2 10 -4z m-2800 -26 c0 -5 -4 -10 -10
-10 -5 0 -10 5 -10 10 0 6 5 10 10 10 6 0 10 -4 10 -10z m2770 -5 c0 -11 5
-12 25 -5 29 11 31 4 9 -28 -12 -18 -13 -26 -4 -37 6 -8 9 -19 5 -25 -3 -5 2
-10 14 -10 11 0 23 5 27 11 4 8 9 7 15 -2 13 -21 11 -32 -7 -25 -8 3 -25 1
-36 -5 -15 -8 -22 -8 -28 1 -10 16 -74 -21 -97 -56 -8 -13 -20 -24 -25 -24 -7
0 -6 5 1 13 6 8 8 17 4 20 -3 4 -7 32 -8 62 -2 60 13 86 34 61 10 -11 9 -16
-3 -23 -12 -6 -14 -18 -9 -45 l6 -37 17 22 c18 23 36 85 39 135 1 17 21 15 21
-3z m-2873 -31 c-1 -2 -13 -1 -26 3 -16 4 -19 8 -10 14 12 7 45 -9 36 -17z
m4223 -14 c0 -5 -5 -10 -11 -10 -5 0 -7 5 -4 10 3 6 8 10 11 10 2 0 4 -4 4
-10z m-4284 -28 c-9 -9 -37 8 -31 18 5 8 11 7 21 -1 8 -6 12 -14 10 -17z
m-166 -2 c0 -5 -4 -10 -10 -10 -5 0 -10 5 -10 10 0 6 5 10 10 10 6 0 10 -4 10
-10z m4255 0 c-3 -5 -13 -10 -21 -10 -8 0 -12 5 -9 10 3 6 13 10 21 10 8 0 12
-4 9 -10z m-573 -22 c-7 -7 -12 -8 -12 -2 0 6 3 14 7 17 3 4 9 5 12 2 2 -3 -1
-11 -7 -17z m-3714 -33 c-3 -3 -9 2 -12 12 -6 14 -5 15 5 6 7 -7 10 -15 7 -18z
m152 9 c0 -2 -7 -4 -15 -4 -8 0 -15 4 -15 10 0 5 7 7 15 4 8 -4 15 -8 15 -10z
m3099 -31 c11 -6 -32 -53 -49 -53 -23 0 -27 15 -5 24 8 3 15 10 15 15 0 6 -7
8 -15 5 -18 -7 -20 7 -4 23 11 11 15 10 58 -14z m-3018 0 c12 -15 12 -16 -3
-10 -10 3 -20 2 -23 -4 -8 -13 -25 -2 -25 17 0 19 35 18 51 -3z m74 -3 c3 -5
-1 -10 -9 -10 -9 0 -16 5 -16 10 0 6 4 10 9 10 6 0 13 -4 16 -10z m-235 -20
c13 -11 20 -23 16 -27 -4 -4 -10 -3 -14 3 -4 6 -15 13 -24 17 -18 6 -25 27
-10 27 5 0 19 -9 32 -20z m3070 7 c0 -7 -13 -23 -30 -35 -34 -26 -37 -22 -13
19 18 30 43 39 43 16z m-3164 -14 c22 -30 16 -52 -6 -24 -20 23 -26 41 -14 41
4 0 13 -8 20 -17z m3314 9 c0 -4 -12 -20 -27 -37 -48 -50 -72 -86 -67 -100 3
-7 -4 -16 -15 -20 -27 -8 -54 -58 -39 -73 7 -7 5 -10 -6 -9 -9 1 -24 -11 -34
-28 -18 -31 -54 -66 -61 -59 -2 2 4 13 15 25 10 11 17 31 16 44 -2 13 4 36 13
52 14 24 15 25 9 4 -4 -17 -2 -22 7 -19 19 6 79 110 73 127 -6 18 14 41 31 35
7 -3 25 10 40 30 26 34 45 46 45 28z m-370 -14 c0 -7 -8 -22 -17 -33 -14 -18
-15 -18 -9 -2 3 10 6 25 6 33 0 8 5 14 10 14 6 0 10 -6 10 -12z m-2270 -13 c7
-9 10 -18 6 -22 -3 -3 -6 -1 -6 5 0 7 -7 12 -15 12 -8 0 -15 5 -15 10 0 15 16
12 30 -5z m2506 -38 c-8 -39 -43 -77 -71 -77 -11 0 -27 -6 -33 -12 -32 -32 13
56 47 91 42 45 66 44 57 -2z m-3031 23 c3 -5 2 -10 -4 -10 -5 0 -13 5 -16 10
-3 6 -2 10 4 10 5 0 13 -4 16 -10z m135 -6 c0 -8 -4 -12 -10 -9 -5 3 -10 10
-10 16 0 5 5 9 10 9 6 0 10 -7 10 -16z m-220 -16 c0 -6 -6 -5 -15 2 -8 7 -15
14 -15 16 0 2 7 1 15 -2 8 -4 15 -11 15 -16z m3017 -15 c-9 -9 -20 -13 -24 -9
-4 4 1 14 11 22 25 18 35 8 13 -13z m-2897 13 c0 -3 -4 -8 -10 -11 -5 -3 -10
-1 -10 4 0 6 5 11 10 11 6 0 10 -2 10 -4z m170 -6 c0 -5 -4 -10 -10 -10 -5 0
-10 5 -10 10 0 6 5 10 10 10 6 0 10 -4 10 -10z m330 -12 c0 -16 -3 -19 -11
-11 -6 6 -8 16 -5 22 11 17 16 13 16 -11z m125 2 c3 -5 2 -10 -4 -10 -5 0 -13
5 -16 10 -3 6 -2 10 4 10 5 0 13 -4 16 -10z m2102 -12 c-3 -8 -6 -5 -6 6 -1
11 2 17 5 13 3 -3 4 -12 1 -19z m53 14 c0 -13 -12 -22 -22 -16 -10 6 -1 24 13
24 5 0 9 -4 9 -8z m37 -32 c-12 -43 -27 -54 -27 -18 0 17 25 58 35 58 1 0 -3
-18 -8 -40z m-2777 9 c0 -5 -7 -9 -15 -9 -15 0 -20 12 -9 23 8 8 24 -1 24 -14z
m495 -16 c-9 -36 -13 -39 -28 -24 -9 11 -9 14 1 18 6 3 12 11 12 19 0 8 5 14
11 14 7 0 9 -10 4 -27z m50 17 c3 -5 -1 -10 -9 -10 -9 0 -16 5 -16 10 0 6 4
10 9 10 6 0 13 -4 16 -10z m-495 -10 c0 -5 -4 -10 -10 -10 -5 0 -10 5 -10 10
0 6 5 10 10 10 6 0 10 -4 10 -10z m-65 -138 c-9 -9 -16 5 -21 44 l-4 39 15
-39 c8 -22 13 -42 10 -44z m560 68 c3 -5 1 -10 -4 -10 -6 0 -11 5 -11 10 0 6
2 10 4 10 3 0 8 -4 11 -10z m-129 -27 c-7 -7 -26 7 -26 19 0 6 6 6 15 -2 9 -7
13 -15 11 -17z m104 23 c0 -3 -4 -8 -10 -11 -5 -3 -10 -1 -10 4 0 6 5 11 10
11 6 0 10 -2 10 -4z m2514 -11 c-10 -8 -23 -14 -29 -14 -5 0 -1 6 9 14 11 8
24 15 30 15 5 0 1 -7 -10 -15z m-2984 -15 c0 -5 -4 -10 -10 -10 -5 0 -10 5
-10 10 0 6 5 10 10 10 6 0 10 -4 10 -10z m2720 2 c0 -10 -22 -32 -32 -32 -5 0
-3 9 4 20 13 20 28 27 28 12z m987 -21 c-3 -12 1 -22 11 -26 8 -3 12 -8 9 -12
-4 -3 -20 0 -38 7 l-31 13 23 18 c30 23 32 23 26 0z m-3962 -1 c3 -5 2 -10 -4
-10 -5 0 -13 5 -16 10 -3 6 -2 10 4 10 5 0 13 -4 16 -10z m335 -20 c0 -5 -4
-10 -10 -10 -5 0 -10 5 -10 10 0 6 5 10 10 10 6 0 10 -4 10 -10z m2490 -25
c-9 -23 -6 -29 13 -26 10 1 9 -27 -2 -33 -5 -3 -14 1 -21 9 -13 15 -5 75 11
75 5 0 4 -11 -1 -25z m207 3 c-3 -8 -6 -5 -6 6 -1 11 2 17 5 13 3 -3 4 -12 1
-19z m-2997 1 c0 -6 -5 -7 -11 -3 -9 5 -10 -1 -5 -19 5 -21 3 -25 -9 -20 -13
4 -15 0 -9 -21 5 -22 3 -26 -14 -26 -15 0 -20 6 -18 25 0 14 4 25 9 25 4 0 7
8 7 18 0 10 2 21 5 23 9 9 45 7 45 -2z m2850 -9 c0 -5 -7 -7 -15 -4 -8 4 -12
10 -9 15 6 11 24 2 24 -11z m-2914 -1 c8 -14 -11 -33 -25 -25 -11 7 -4 36 9
36 5 0 12 -5 16 -11z m3371 -5 c-3 -3 -12 -4 -19 -1 -8 3 -5 6 6 6 11 1 17 -2
13 -5z m-3197 -39 c14 -19 14 -19 -2 -6 -10 7 -18 18 -18 24 0 6 1 8 3 6 1 -2
9 -13 17 -24z m-65 -5 c-3 -5 0 -10 7 -10 7 0 24 -11 36 -25 l24 -25 -27 -10
c-29 -11 -56 -3 -34 11 10 6 7 13 -12 28 -20 18 -22 22 -9 31 19 12 23 13 15
0z m1321 -17 c-7 -7 -26 7 -26 19 0 6 6 6 15 -2 9 -7 13 -15 11 -17z m1295 7
c5 0 9 -7 9 -15 0 -18 -9 -19 -32 -1 -22 16 -23 30 -2 22 9 -3 20 -6 25 -6z
m401 -17 c-6 -10 -20 -27 -33 -38 l-22 -20 13 25 c16 31 42 62 47 56 3 -2 0
-13 -5 -23z m-2862 1 c0 -14 -3 -14 -15 -4 -8 7 -15 14 -15 16 0 2 7 4 15 4 8
0 15 -7 15 -16z m-40 -10 c0 -9 -5 -14 -12 -12 -18 6 -21 28 -4 28 9 0 16 -7
16 -16z m2840 3 c0 -8 -9 -22 -20 -32 -23 -21 -25 -16 -8 20 12 27 28 34 28
12z m980 3 c0 -5 -2 -10 -4 -10 -3 0 -8 5 -11 10 -3 6 -1 10 4 10 6 0 11 -4
11 -10z m-1784 -55 c1 -25 -2 -45 -6 -45 -10 0 -23 68 -15 80 13 21 20 8 21
-35z m-436 25 c0 -5 -5 -10 -11 -10 -5 0 -7 5 -4 10 3 6 8 10 11 10 2 0 4 -4
4 -10z m470 -20 c0 -5 -4 -10 -10 -10 -5 0 -10 5 -10 10 0 6 5 10 10 10 6 0
10 -4 10 -10z m-1564 -27 c-7 -7 -26 7 -26 19 0 6 6 6 15 -2 9 -7 13 -15 11
-17z m2064 1 c0 -8 -4 -14 -10 -14 -5 0 -10 9 -10 21 0 11 5 17 10 14 6 -3 10
-13 10 -21z m95 6 c-3 -5 -10 -10 -16 -10 -5 0 -9 5 -9 10 0 6 7 10 16 10 8 0
12 -4 9 -10z m330 -9 c-3 -6 -11 -11 -17 -11 -6 0 -6 6 2 15 14 17 26 13 15
-4z m-3112 2 c-7 -2 -19 -2 -25 0 -7 3 -2 5 12 5 14 0 19 -2 13 -5z m1567 -3
c0 -5 -4 -10 -10 -10 -5 0 -10 5 -10 10 0 6 5 10 10 10 6 0 10 -4 10 -10z
m2250 -3 c-2 -15 44 -45 60 -39 8 3 2 -6 -14 -21 -33 -31 -41 -34 -33 -12 4 8
-4 22 -19 34 -15 12 -22 25 -18 35 6 16 27 18 24 3z m-1276 -39 c-3 -5 -13 -7
-21 -4 -11 4 -14 0 -11 -19 2 -13 -1 -23 -7 -22 -5 1 -10 10 -9 20 0 9 -3 17
-8 17 -15 0 -8 29 9 39 20 11 57 -14 47 -31z m36 32 c0 -5 -4 -10 -9 -10 -6 0
-13 5 -16 10 -3 6 1 10 9 10 9 0 16 -4 16 -10z m1480 -6 c0 -8 -5 -12 -10 -9
-6 4 -8 11 -5 16 9 14 15 11 15 -7z m-3961 -8 c6 6 34 -37 28 -43 -3 -3 -16 2
-29 11 -35 25 -56 21 -32 -6 19 -21 19 -21 -1 -14 -11 5 -38 11 -60 14 -35 5
-38 3 -27 -10 10 -13 9 -15 -13 -10 -20 3 -23 7 -14 18 6 8 17 14 24 14 7 0
15 8 18 19 4 16 10 17 53 11 27 -4 51 -6 53 -4z m1115 -12 c25 -14 46 -30 46
-35 0 -5 -2 -9 -4 -9 -8 0 -96 61 -96 66 0 7 6 5 54 -22z m908 1 c-2 -14 -6
-25 -8 -25 -2 0 -4 11 -4 25 0 14 4 25 9 25 4 0 6 -11 3 -25z m67 -2 c0 -25
-1 -25 -8 -8 -5 11 -7 23 -4 28 8 14 13 7 12 -20z m1811 12 c0 -10 -10 -15
-31 -15 -27 0 -30 2 -19 15 7 8 21 15 31 15 11 0 19 -7 19 -15z m-2402 -42
c-6 -7 -7 -13 -3 -13 5 0 6 -2 3 -5 -8 -8 -68 16 -68 27 0 6 11 7 25 4 19 -5
25 -2 25 9 0 13 2 14 14 3 10 -9 11 -17 4 -25z m469 31 c-3 -3 -12 -4 -19 -1
-8 3 -5 6 6 6 11 1 17 -2 13 -5z m242 -1 c0 -5 -4 -17 -9 -28 -8 -18 -9 -17
-9 8 -1 15 4 27 9 27 6 0 10 -3 9 -7z m-879 -13 c0 -5 -4 -10 -10 -10 -5 0
-10 5 -10 10 0 6 5 10 10 10 6 0 10 -4 10 -10z m2660 -10 c0 -5 -4 -10 -10
-10 -5 0 -10 5 -10 10 0 6 5 10 10 10 6 0 10 -4 10 -10z m-3625 -10 c4 -6 -6
-10 -22 -10 -22 0 -25 2 -13 10 19 12 27 12 35 0z m1413 -32 c-15 -68 -27 -69
-20 0 2 25 9 42 17 42 10 0 11 -10 3 -42z m724 20 c-7 -7 -12 -8 -12 -2 0 6 3
14 7 17 3 4 9 5 12 2 2 -3 -1 -11 -7 -17z m108 18 c0 -3 -4 -8 -10 -11 -5 -3
-10 -1 -10 4 0 6 5 11 10 11 6 0 10 -2 10 -4z m-2185 -16 c4 -6 -6 -10 -22 -9
-25 0 -26 1 -8 9 11 5 21 9 22 9 1 1 5 -3 8 -9z m3400 0 c-3 -5 -10 -10 -16
-10 -5 0 -9 5 -9 10 0 6 7 10 16 10 8 0 12 -4 9 -10z m-2202 -14 c3 3 15 1 26
-6 27 -14 27 -46 1 -53 -13 -3 -20 0 -20 8 0 8 -12 20 -27 27 -36 18 -44 42
-10 29 14 -5 27 -7 30 -5z m407 -7 c0 -6 -4 -7 -10 -4 -5 3 -10 11 -10 16 0 6
5 7 10 4 6 -3 10 -11 10 -16z m1107 -9 c11 -22 10 -28 -11 -49 -18 -18 -30
-22 -50 -17 -35 9 -37 57 -3 81 29 20 49 16 64 -15z m-557 10 c0 -5 -4 -10
-10 -10 -5 0 -10 5 -10 10 0 6 5 10 10 10 6 0 10 -4 10 -10z m1390 -5 c0 -15
-43 -12 -48 3 -3 10 4 13 22 10 15 -2 26 -7 26 -13z m70 -16 c0 6 9 11 20 11
18 0 20 -5 18 -37 -3 -34 0 -39 34 -58 21 -11 38 -26 38 -32 0 -7 13 -25 30
-40 22 -19 27 -29 19 -39 -7 -9 -6 -15 3 -20 21 -13 -32 -22 -82 -14 -38 6
-41 9 -22 15 12 4 22 14 22 22 0 10 6 13 16 9 14 -5 15 -4 4 9 -7 8 -25 15
-41 15 -16 0 -29 5 -29 10 0 6 3 10 8 10 4 0 12 11 18 24 9 20 8 23 -7 19 -10
-3 -28 4 -40 16 -13 12 -28 21 -35 21 -15 0 -23 31 -16 66 l5 27 18 -22 c11
-13 19 -18 19 -12z m-1860 5 c0 -8 -4 -12 -10 -9 -5 3 -10 10 -10 16 0 5 5 9
10 9 6 0 10 -7 10 -16z m-2175 -4 c3 -5 1 -10 -4 -10 -6 0 -11 5 -11 10 0 6 2
10 4 10 3 0 8 -4 11 -10z m2908 -34 c-18 -25 -53 -35 -53 -16 0 6 7 10 15 10
8 0 22 12 32 26 9 15 19 22 21 16 2 -6 -5 -23 -15 -36z m-2843 -8 c0 -10 -4
-18 -9 -18 -12 0 -42 46 -34 53 10 10 43 -17 43 -35z m272 18 c21 -9 51 -16
68 -16 18 0 29 -4 25 -10 -7 -11 -116 -13 -153 -3 -17 4 -20 8 -11 14 8 5 -1
10 -24 14 -21 4 -40 11 -42 16 -9 13 97 2 137 -15z m73 14 c18 -8 17 -9 -7 -9
-16 -1 -28 4 -28 9 0 12 8 12 35 0z m2005 1 c0 -5 -7 -11 -15 -15 -15 -5 -20
5 -8 17 9 10 23 9 23 -2z m-510 -5 c0 -2 -7 -6 -15 -10 -8 -3 -15 -1 -15 4 0
6 7 10 15 10 8 0 15 -2 15 -4z m-645 -16 c3 -5 1 -10 -4 -10 -6 0 -11 5 -11
10 0 6 2 10 4 10 3 0 8 -4 11 -10z m1285 0 c0 -5 -5 -10 -11 -10 -5 0 -7 5 -4
10 3 6 8 10 11 10 2 0 4 -4 4 -10z m-337 -26 c-10 -7 -22 -9 -27 -4 -14 13 2
29 24 23 19 -5 19 -6 3 -19z m157 22 c0 -3 -4 -8 -10 -11 -5 -3 -10 -1 -10 4
0 6 5 11 10 11 6 0 10 -2 10 -4z m1560 -11 c0 -8 -9 -15 -20 -15 -20 0 -26 11
-13 23 12 13 33 7 33 -8z m-4076 -1 c9 -3 16 -10 16 -15 0 -14 -26 -10 -40 6
-13 16 -3 20 24 9z m4016 -3 c0 -6 -4 -13 -10 -16 -5 -3 -10 1 -10 9 0 9 5 16
10 16 6 0 10 -4 10 -9z m-2210 -22 c0 -6 -4 -7 -10 -4 -5 3 -10 11 -10 16 0 6
5 7 10 4 6 -3 10 -11 10 -16z m146 -5 c-5 -14 -9 -15 -19 -5 -9 9 -9 14 3 21
18 11 24 6 16 -16z m64 16 c0 -5 -2 -10 -4 -10 -3 0 -8 5 -11 10 -3 6 -1 10 4
10 6 0 11 -4 11 -10z m160 -5 c0 -16 -9 -19 -36 -8 -16 6 -16 7 2 14 29 11 34
10 34 -6z m-1461 -4 c20 5 64 9 98 9 55 0 62 -2 69 -22 5 -13 8 -26 9 -30 0
-3 3 -10 8 -14 14 -15 6 -22 -33 -28 -27 -4 -40 -11 -40 -22 0 -11 -6 -14 -22
-9 -22 6 -22 5 -4 -9 10 -8 15 -19 12 -24 -3 -6 -2 -22 4 -37 8 -21 14 -25 33
-19 12 3 24 11 26 16 2 5 18 -5 37 -23 25 -24 30 -35 21 -41 -7 -5 1 -8 22 -8
29 0 32 -2 21 -15 -7 -8 -21 -15 -32 -15 -30 0 -58 -19 -58 -39 0 -15 -5 -18
-21 -14 -16 4 -20 2 -17 -8 3 -8 11 -14 19 -15 23 -2 49 -15 49 -27 0 -5 -8
-3 -18 6 -11 11 -22 13 -32 7 -12 -7 -12 -12 4 -28 12 -15 14 -22 5 -27 -7 -5
-9 -24 -6 -52 5 -43 4 -44 -19 -39 -24 6 -64 -8 -64 -22 0 -16 72 -52 104 -52
42 0 54 -15 25 -31 -18 -9 -24 -8 -30 4 -9 16 -44 17 -44 1 0 -5 -4 -15 -8
-22 -6 -8 1 -14 23 -18 56 -12 47 -28 -10 -20 -66 9 -100 25 -55 26 21 0 26 3
16 9 -13 8 -77 -1 -89 -14 -4 -4 6 -18 21 -31 23 -20 26 -27 17 -44 -11 -20
-32 -18 -61 7 -9 7 -19 10 -22 6 -11 -10 -8 -23 6 -23 6 0 23 -9 37 -20 14
-11 40 -20 58 -20 17 0 32 -5 32 -11 0 -8 -16 -10 -50 -6 -27 3 -50 4 -50 2 0
-2 -3 -10 -6 -19 -7 -18 35 -39 51 -26 6 5 41 11 79 15 52 4 67 3 63 -7 -2 -8
-18 -12 -38 -11 -49 3 -141 -17 -136 -30 2 -6 21 -16 43 -22 21 -6 38 -17 37
-23 -2 -7 9 -12 24 -12 l27 0 -21 -15 c-13 -9 -20 -22 -17 -30 4 -11 -1 -15
-16 -15 -22 0 -22 0 4 -21 33 -26 33 -39 2 -39 -14 0 -28 -5 -31 -11 -21 -33
-87 -26 -79 8 4 13 -4 21 -30 29 -31 9 -38 8 -63 -12 l-28 -23 25 -1 c24 -1
24 -1 6 -15 -19 -14 -18 -15 10 -15 17 0 35 5 41 11 6 6 16 8 22 5 16 -10 13
-36 -4 -42 -32 -13 -15 -40 23 -35 16 2 15 -5 -4 -34 -15 -23 -15 -25 -1 -25
9 0 20 7 25 15 5 10 15 13 25 9 23 -9 21 -25 -4 -31 -21 -6 -21 -6 2 -24 13
-10 18 -19 12 -19 -7 0 -13 -7 -13 -15 0 -9 -9 -15 -24 -15 -31 0 -42 -16 -20
-28 10 -6 15 -16 11 -26 -4 -10 -1 -16 8 -16 8 0 15 7 15 15 0 10 10 15 30 15
31 0 39 17 19 37 -15 15 -3 33 22 33 24 0 25 17 2 23 -10 3 -1 5 20 6 24 1 36
-3 32 -9 -4 -6 -1 -17 5 -25 6 -8 9 -19 5 -24 -3 -7 0 -8 10 -5 10 4 14 2 10
-8 -4 -9 4 -19 20 -26 14 -7 23 -17 20 -22 -3 -6 3 -10 14 -10 12 0 21 -5 21
-12 0 -6 -3 -8 -6 -5 -4 3 -15 2 -26 -4 -15 -8 -23 -7 -33 8 -13 17 -14 17
-20 1 -7 -16 -8 -16 -24 2 -9 11 -27 21 -41 22 -20 2 -24 -1 -22 -16 3 -18 2
-18 -20 -5 -21 13 -25 13 -45 -7 -13 -11 -20 -24 -17 -27 8 -8 65 3 81 15 7 5
21 7 33 3 17 -5 19 -10 9 -21 -6 -7 -9 -21 -5 -29 9 -24 -3 -42 -27 -40 -12 1
-15 0 -6 -2 20 -5 33 -45 17 -54 -6 -4 -8 -14 -5 -24 4 -9 11 -14 16 -11 15
10 40 -5 35 -19 -4 -10 1 -12 15 -8 16 4 21 1 21 -16 0 -11 5 -21 10 -21 6 0
10 5 10 10 0 6 9 10 20 10 11 0 20 -3 20 -7 0 -17 -56 -63 -77 -63 -13 0 -23
-4 -23 -9 0 -12 26 -21 61 -21 32 0 39 -15 10 -23 -12 -3 -18 -12 -16 -28 3
-31 0 -29 37 -18 43 12 54 -2 23 -31 -31 -29 -32 -40 -4 -33 18 5 20 3 14 -16
-5 -18 -2 -21 19 -21 14 0 26 -4 26 -10 0 -5 -4 -10 -10 -10 -5 0 -10 -4 -10
-10 0 -5 8 -10 18 -10 9 0 35 -11 56 -24 21 -13 46 -22 55 -21 9 1 10 0 4 -2
-18 -6 -16 -23 3 -23 11 0 14 -6 9 -20 -7 -22 10 -28 19 -7 3 8 8 7 16 -5 12
-19 50 -24 65 -9 6 5 21 12 35 16 22 7 23 6 11 -9 -7 -9 -19 -16 -26 -16 -7 0
-23 -9 -36 -20 l-24 -19 27 -1 c16 0 28 -6 30 -16 2 -13 8 -11 31 10 15 14 27
21 27 17 0 -5 -7 -14 -15 -21 -21 -18 -19 -40 5 -40 11 0 20 -5 20 -11 0 -7
11 -8 30 -4 22 5 30 3 30 -7 0 -10 3 -9 10 2 8 12 10 10 10 -8 l0 -23 33 22
c37 27 28 13 -37 -55 -46 -48 -31 -61 20 -16 20 17 38 29 40 27 11 -11 -22
-57 -52 -73 -19 -10 -37 -27 -40 -36 -3 -10 -15 -18 -28 -18 -41 0 -164 -112
-167 -152 -1 -18 -98 -103 -106 -94 -4 4 2 15 13 24 26 21 79 92 69 92 -4 0
27 36 70 79 42 43 84 89 93 102 9 13 23 29 32 36 13 10 11 11 -8 6 -12 -3 -25
-9 -28 -14 -7 -12 -34 -11 -34 1 0 12 44 55 64 63 17 7 22 27 7 27 -5 0 -17
-7 -26 -16 -8 -9 -24 -14 -35 -11 -11 3 -24 -1 -31 -9 -7 -9 -21 -11 -36 -8
-16 4 -29 2 -35 -7 -6 -10 -7 -3 -3 18 5 27 3 33 -10 33 -12 0 -15 6 -10 19 5
17 1 19 -39 16 -24 -1 -49 -6 -55 -9 -6 -4 -11 -3 -11 3 0 5 4 12 10 16 13 8
1 35 -17 35 -19 0 -43 25 -43 45 0 9 -9 19 -20 22 -11 3 -20 12 -20 20 0 8 -4
12 -8 9 -4 -2 -14 -1 -22 5 -9 5 -10 9 -4 9 7 0 15 7 18 16 4 12 1 14 -14 9
-27 -9 -60 12 -60 38 -1 32 -44 77 -75 77 -15 0 -24 4 -20 10 3 6 1 10 -4 10
-6 0 -11 8 -11 19 0 21 -21 41 -47 45 -10 2 -18 9 -19 17 -1 21 -16 53 -28 61
-7 5 -7 8 2 8 6 0 12 5 12 10 0 6 -11 10 -24 10 -13 0 -26 5 -28 12 -2 6 -10
8 -17 4 -9 -6 -9 -11 -1 -21 15 -18 -12 -33 -49 -27 -22 3 -28 8 -24 23 3 10
10 19 15 19 5 0 8 12 7 28 -2 15 0 32 3 38 10 15 3 60 -11 78 -7 8 -11 25 -9
37 2 17 -3 23 -21 26 -30 4 -41 13 -17 13 15 0 14 3 -4 22 -11 12 -20 30 -20
40 0 10 -7 18 -15 18 -9 0 -15 9 -15 23 0 12 -7 33 -16 45 -8 12 -10 22 -5 22
20 0 11 18 -11 24 -15 4 -19 9 -11 14 13 8 5 62 -9 62 -6 0 -6 6 1 14 18 22 4
86 -19 86 -14 0 -17 6 -13 28 12 71 8 107 -12 114 -16 5 -14 6 9 7 28 1 29 1
11 21 -10 11 -13 20 -7 20 7 0 12 5 12 10 0 6 -11 10 -24 10 -14 0 -28 5 -32
11 -4 7 0 9 13 5 27 -8 43 13 46 59 2 20 9 40 17 46 13 8 12 12 -6 27 -12 9
-24 27 -27 39 -4 16 1 23 20 28 13 3 28 3 33 0 6 -4 10 -1 10 5 0 6 -7 13 -16
17 -15 6 -15 7 1 19 23 17 13 30 -30 38 -20 4 -33 11 -30 16 3 5 19 7 35 4 20
-4 34 -1 45 10 9 9 23 16 32 16 10 0 14 6 10 20 -3 13 0 20 9 20 8 0 11 6 8
15 -4 8 -1 15 5 15 6 0 11 7 11 16 0 10 -6 14 -15 10 -9 -3 -15 0 -15 9 0 9
10 15 28 16 15 0 21 3 15 6 -18 7 -16 23 2 23 18 0 20 26 3 33 -7 3 -3 6 10 6
12 1 22 6 22 11 0 6 7 10 16 10 8 0 22 7 30 15 14 13 13 15 -6 15 -16 0 -21 5
-19 23 2 12 0 28 -5 36 -7 11 0 13 40 8 41 -6 45 -5 27 5 -13 6 -23 15 -23 20
0 4 -7 8 -15 8 -8 0 -15 5 -15 10 0 6 9 10 20 10 11 0 20 6 20 13 0 10 -10 12
-32 9 -18 -3 -30 -1 -26 3 4 5 3 14 -3 22 -6 7 -8 13 -4 13 4 0 13 -7 20 -17
12 -16 17 -15 64 12 l25 14 -27 12 c-32 15 -36 29 -5 21 15 -4 19 -2 13 8 -5
9 -25 11 -69 6 -33 -3 -86 -6 -118 -5 -31 0 -59 -5 -63 -11 -10 -16 -21 -12
-21 9 0 16 7 18 56 15 30 -2 89 3 130 10 41 7 81 10 89 6 7 -4 30 -4 50 1z
m1130 -13 c19 -52 22 -68 12 -68 -6 0 -13 12 -17 28 -3 15 -8 35 -11 45 -7 25
6 21 16 -5z m377 -5 c-10 -10 -19 5 -10 18 6 11 8 11 12 0 2 -7 1 -15 -2 -18z
m344 -8 c0 -19 -5 -35 -11 -35 -7 0 -9 10 -7 25 3 14 1 25 -3 25 -5 0 -9 -4
-9 -10 0 -5 -9 -10 -21 -10 -42 0 -6 32 44 39 4 1 7 -15 7 -34z m-2623 19 c-3
-3 -12 -4 -19 -1 -8 3 -5 6 6 6 11 1 17 -2 13 -5z m163 -14 c8 -5 12 -11 9
-14 -7 -8 -49 5 -49 15 0 12 21 11 40 -1z m2902 -20 c-2 -16 -8 -30 -13 -30
-10 0 -12 43 -2 53 14 14 19 6 15 -23z m98 20 c0 -5 -7 -10 -16 -10 -8 0 -12
5 -9 10 3 6 10 10 16 10 5 0 9 -4 9 -10z m137 4 c-3 -3 -12 -4 -19 -1 -8 3 -5
6 6 6 11 1 17 -2 13 -5z m833 -19 c0 -8 -9 -15 -19 -15 -24 0 -36 16 -19 23
24 10 38 7 38 -8z m-2160 -26 c0 -6 -4 -7 -10 -4 -5 3 -10 11 -10 16 0 6 5 7
10 4 6 -3 10 -11 10 -16z m-1920 7 c0 -11 -19 -15 -25 -6 -3 5 1 10 9 10 9 0
16 -2 16 -4z m2170 -28 c0 -5 -4 -8 -10 -8 -5 0 -10 10 -10 23 0 18 2 19 10 7
5 -8 10 -18 10 -22z m-2060 12 c0 -5 -7 -10 -15 -10 -8 0 -15 5 -15 10 0 6 7
10 15 10 8 0 15 -4 15 -10z m1367 -12 c-3 -8 -6 -5 -6 6 -1 11 2 17 5 13 3 -3
4 -12 1 -19z m48 2 c3 -5 1 -10 -4 -10 -6 0 -11 5 -11 10 0 6 2 10 4 10 3 0 8
-4 11 -10z m985 0 c0 -5 -4 -10 -10 -10 -5 0 -10 5 -10 10 0 6 5 10 10 10 6 0
10 -4 10 -10z m1477 4 c-3 -3 -12 -4 -19 -1 -8 3 -5 6 6 6 11 1 17 -2 13 -5z
m-4011 -19 c-3 -9 4 -21 20 -32 22 -14 27 -14 35 -2 6 10 9 11 9 1 0 -18 -29
-27 -43 -13 -6 6 -19 11 -28 11 -19 0 -32 37 -15 44 21 9 28 6 22 -9z m61 -1
c-3 -3 -12 -4 -19 -1 -8 3 -5 6 6 6 11 1 17 -2 13 -5z m3082 -18 c-13 -13 -35
-26 -49 -30 -23 -7 -22 -4 10 23 42 37 74 43 39 7z m-1544 -35 c-3 -2 -11 1
-17 7 -7 7 -25 12 -40 12 -15 0 -28 5 -28 11 0 6 7 9 15 6 8 -4 17 -1 21 4 4
6 15 2 30 -12 13 -12 22 -25 19 -28z m306 22 c-8 -15 -10 -15 -11 -2 0 17 10
32 18 25 2 -3 -1 -13 -7 -23z m-1677 2 c3 -8 1 -15 -3 -15 -5 0 -11 7 -15 15
-3 8 -1 15 3 15 5 0 11 -7 15 -15z m936 -1 c0 -8 -4 -12 -10 -9 -5 3 -10 10
-10 16 0 5 5 9 10 9 6 0 10 -7 10 -16z m-895 -13 c-3 -6 -11 -11 -17 -11 -6 0
-6 6 2 15 14 17 26 13 15 -4z m1669 -15 c-3 -9 -10 -16 -15 -16 -14 0 -11 28
4 33 16 6 19 3 11 -17z m233 -23 c-4 -17 -4 -17 -12 0 -4 9 -4 25 0 35 8 16 8
16 12 0 3 -10 3 -26 0 -35z m1013 43 c0 -3 -4 -8 -10 -11 -5 -3 -10 -1 -10 4
0 6 5 11 10 11 6 0 10 -2 10 -4z m920 -6 c0 -5 -9 -10 -19 -10 -11 0 -23 5
-26 10 -4 6 5 10 19 10 14 0 26 -4 26 -10z m-3715 -10 c3 -5 -1 -10 -9 -10 -9
0 -16 5 -16 10 0 6 4 10 9 10 6 0 13 -4 16 -10z m45 0 c0 -5 -7 -10 -16 -10
-8 0 -12 5 -9 10 3 6 10 10 16 10 5 0 9 -4 9 -10z m1195 0 c3 -5 1 -10 -4 -10
-6 0 -11 5 -11 10 0 6 2 10 4 10 3 0 8 -4 11 -10z m981 -5 c-27 -21 -53 -20
-36 0 7 8 22 15 34 15 21 -1 21 -1 2 -15z m754 5 c0 -5 -11 -10 -25 -10 -14 0
-25 5 -25 10 0 6 11 10 25 10 14 0 25 -4 25 -10z m-3045 -10 c3 -5 1 -10 -4
-10 -6 0 -11 5 -11 10 0 6 2 10 4 10 3 0 8 -4 11 -10z m262 4 c-3 -3 -12 -4
-19 -1 -8 3 -5 6 6 6 11 1 17 -2 13 -5z m917 -10 c4 -9 4 -19 2 -21 -8 -8 -26
8 -26 23 0 19 16 18 24 -2z m-464 -15 c0 -5 -4 -9 -10 -9 -5 0 -10 7 -10 16 0
8 5 12 10 9 6 -3 10 -10 10 -16z m1520 -4 c0 -8 -4 -15 -10 -15 -5 0 -7 7 -4
15 4 8 8 15 10 15 2 0 4 -7 4 -15z m1688 3 c-3 -7 -17 -14 -31 -15 -33 -2 -35
5 -4 17 31 12 39 12 35 -2z m-2232 -11 c8 3 14 0 14 -6 0 -6 -7 -11 -15 -11
-8 0 -15 -4 -15 -10 0 -5 -4 -10 -9 -10 -4 0 -6 12 -3 28 3 15 7 22 9 15 2 -7
11 -9 19 -6z m1134 3 c0 -5 -4 -10 -9 -10 -5 0 -18 -3 -28 -6 -16 -5 -16 -4 1
10 23 18 36 20 36 6z m40 6 c0 -3 -4 -8 -10 -11 -5 -3 -10 -1 -10 4 0 6 5 11
10 11 6 0 10 -2 10 -4z m280 -6 c0 -5 -7 -10 -16 -10 -8 0 -12 5 -9 10 3 6 10
10 16 10 5 0 9 -4 9 -10z m941 -11 c5 -8 9 -17 9 -21 0 -11 -24 -10 -35 1 -6
5 -28 11 -49 13 -22 2 -41 8 -43 14 -6 17 107 11 118 -7z m-3405 -16 c-10 -10
-19 5 -10 18 6 11 8 11 12 0 2 -7 1 -15 -2 -18z m2314 12 c21 -11 36 -12 55
-5 38 14 44 13 38 -10 -4 -16 0 -20 23 -21 l29 -1 -29 -10 c-23 -9 -30 -8 -38
6 -10 18 -87 23 -104 6 -5 -5 -15 -6 -24 0 -12 7 -10 11 10 19 18 7 20 10 8
10 -10 1 -18 6 -18 11 0 14 16 12 50 -5z m-1370 -10 c0 -25 1 -30 12 -43 6 -7
9 -15 6 -18 -5 -4 -48 60 -48 72 0 2 7 4 15 4 8 0 15 -7 15 -15z m2225 5 c-3
-5 -14 -10 -23 -10 -15 0 -15 2 -2 10 20 13 33 13 25 0z m-3748 -17 c3 -7 -3
-9 -16 -6 -12 3 -21 10 -21 15 0 13 32 6 37 -9z m1113 7 c0 -5 -4 -10 -10 -10
-5 0 -10 5 -10 10 0 6 5 10 10 10 6 0 10 -4 10 -10z m-1340 -4 c0 -3 -4 -8
-10 -11 -5 -3 -10 -1 -10 4 0 6 5 11 10 11 6 0 10 -2 10 -4z m1275 -19 c7 -7
4 -8 -8 -3 -10 3 -25 6 -33 6 -8 0 -14 5 -14 11 0 12 40 2 55 -14z m210 12 c4
-5 18 -15 33 -20 18 -7 22 -13 15 -20 -12 -12 -57 14 -67 39 -6 15 10 16 19 1z
m-1585 -28 c-6 -12 -15 -21 -20 -21 -4 0 -15 -3 -24 -6 -27 -10 -17 10 16 33
36 26 44 24 28 -6z m145 19 c3 -5 -1 -10 -10 -10 -9 0 -13 5 -10 10 3 6 8 10
10 10 2 0 7 -4 10 -10z m2990 0 c3 -5 1 -10 -4 -10 -6 0 -11 5 -11 10 0 6 2
10 4 10 3 0 8 -4 11 -10z m280 0 c-3 -5 -10 -10 -16 -10 -5 0 -9 5 -9 10 0 6
7 10 16 10 8 0 12 -4 9 -10z m-3105 -16 c0 -2 -7 -4 -15 -4 -8 0 -15 4 -15 10
0 5 7 7 15 4 8 -4 15 -8 15 -10z m65 6 c3 -5 -1 -10 -10 -10 -9 0 -13 5 -10
10 3 6 8 10 10 10 2 0 7 -4 10 -10z m3956 -1 c16 -8 18 -14 9 -24 -8 -10 -7
-14 4 -17 13 -3 13 -6 0 -22 -12 -17 -17 -18 -39 -6 -18 10 -22 16 -13 22 10
6 10 8 1 8 -7 0 -13 5 -13 10 0 10 21 39 28 40 2 0 12 -5 23 -11z m-3848 -14
c-3 -9 -8 -14 -10 -11 -3 3 -2 9 2 15 9 16 15 13 8 -4z m1591 -11 c9 -24 7
-28 -9 -14 -17 14 -20 30 -6 30 5 0 12 -7 15 -16z m-2155 -10 c10 -9 -45 -3
-59 6 -11 7 -5 8 20 4 19 -4 37 -8 39 -10z m148 10 c-3 -3 -12 -4 -19 -1 -8 3
-5 6 6 6 11 1 17 -2 13 -5z m1303 -24 c8 -5 11 -10 5 -10 -5 0 -17 5 -25 10
-8 5 -10 10 -5 10 6 0 17 -5 25 -10z m615 0 c3 -5 1 -10 -4 -10 -6 0 -11 5
-11 10 0 6 2 10 4 10 3 0 8 -4 11 -10z m-1930 -9 c3 -5 1 -12 -4 -15 -12 -8
-41 3 -41 15 0 12 37 12 45 0z m1628 -3 c27 -13 39 -45 13 -35 -8 3 -17 1 -20
-6 -3 -8 -12 -3 -25 13 -34 41 -21 52 32 28z m839 -15 c-3 -16 -7 -22 -10 -15
-4 13 4 42 11 42 2 0 2 -12 -1 -27z m1188 7 c0 -15 -33 -21 -42 -8 -13 21 -9
25 17 20 14 -2 25 -8 25 -12z m-3453 4 c-3 -3 -12 -4 -19 -1 -8 3 -5 6 6 6 11
1 17 -2 13 -5z m653 -4 c0 -5 -7 -7 -15 -4 -8 4 -15 8 -15 10 0 2 7 4 15 4 8
0 15 -4 15 -10z m634 -5 c16 -12 17 -15 4 -15 -8 0 -21 7 -28 15 -16 19 -1 19
24 0z m320 0 c-4 -8 -10 -12 -15 -9 -14 8 -10 24 6 24 9 0 12 -6 9 -15z
m-1689 -5 c3 -5 -1 -10 -9 -10 -9 0 -16 5 -16 10 0 6 4 10 9 10 6 0 13 -4 16
-10z m1163 -4 c-7 -8 -16 -12 -21 -9 -11 7 2 23 19 23 12 0 12 -2 2 -14z m739
-8 c-3 -8 -6 -5 -6 6 -1 11 2 17 5 13 3 -3 4 -12 1 -19z m1723 11 c12 -8 12
-12 2 -16 -19 -7 5 -33 32 -34 19 -1 18 -2 -4 -8 -34 -10 -60 -2 -53 15 7 18
-17 18 -43 0 -13 -9 -25 -11 -35 -6 -10 7 -5 11 20 16 21 4 36 14 38 26 6 20
21 23 43 7z m-2529 -20 c23 -19 23 -20 2 -10 -12 6 -31 11 -43 11 -12 0 -18 5
-15 10 10 16 31 12 56 -11z m3089 6 c0 -9 -9 -15 -21 -15 -18 0 -19 2 -9 15 7
8 16 15 21 15 5 0 9 -7 9 -15z m-2952 -9 c-16 -12 -16 -14 0 -29 22 -23 -1
-22 -28 0 -23 20 -10 43 24 43 19 -1 20 -2 4 -14z m92 -17 c0 -12 9 -21 28
-25 45 -10 52 -13 52 -24 0 -5 -7 -10 -15 -10 -8 0 -15 4 -15 9 0 6 -20 13
-45 17 -35 5 -43 9 -35 19 6 7 8 20 4 29 -5 12 -2 15 10 10 9 -3 16 -15 16
-25z m130 15 c0 -14 -3 -14 -15 -4 -8 7 -15 14 -15 16 0 2 7 4 15 4 8 0 15 -7
15 -16z m500 6 c0 -5 -2 -10 -4 -10 -3 0 -8 5 -11 10 -3 6 -1 10 4 10 6 0 11
-4 11 -10z m1510 -5 c-7 -8 -16 -15 -21 -15 -12 0 -49 -38 -49 -50 0 -5 6 -10
14 -10 8 0 22 -3 31 -7 14 -5 16 -2 11 14 -4 14 -1 23 8 26 19 7 28 -6 20 -27
-5 -12 1 -16 22 -17 16 0 36 -3 44 -7 19 -9 22 -42 4 -42 -8 0 -14 4 -14 10 0
5 -7 7 -15 4 -8 -4 -15 -12 -15 -20 0 -7 -12 -17 -27 -20 -15 -4 -37 -19 -49
-33 -21 -24 -24 -25 -36 -8 -12 16 -15 16 -48 -12 l-35 -30 27 -1 c15 0 30 5
33 10 10 16 25 12 19 -5 -4 -8 -17 -15 -31 -15 -13 0 -34 -11 -46 -24 -12 -13
-32 -26 -43 -30 -12 -4 -30 -16 -40 -28 l-19 -22 29 18 c23 15 30 16 37 5 5
-8 9 -17 9 -21 0 -5 7 -8 15 -8 22 0 18 -37 -4 -50 -28 -15 -41 -12 -34 6 4
12 2 15 -8 12 -8 -3 -14 -11 -14 -19 0 -8 -10 -18 -22 -24 -13 -5 -23 -17 -23
-26 0 -9 -7 -22 -15 -29 -18 -15 -20 1 -3 18 18 18 1 27 -27 12 -19 -10 -23
-18 -18 -38 3 -15 1 -27 -8 -33 -24 -15 -33 -10 -15 10 14 16 15 20 2 30 -17
14 -50 1 -60 -24 -3 -8 -15 -15 -26 -15 -11 0 -20 -7 -20 -15 0 -8 5 -15 11
-15 6 0 1 -12 -10 -26 -12 -15 -21 -35 -21 -45 0 -12 -7 -19 -19 -19 -11 0
-23 -5 -26 -11 -4 -6 -13 -8 -21 -5 -8 3 -14 0 -14 -7 0 -8 -3 -8 -9 2 -5 8
-16 11 -25 8 -21 -8 -21 -27 0 -27 8 0 12 -5 9 -10 -4 -7 -13 -7 -26 0 -11 6
-25 8 -32 4 -9 -6 -8 -3 1 8 11 13 11 18 0 25 -9 5 -2 10 22 13 43 6 54 42 19
60 -15 8 -19 9 -15 1 4 -6 -4 -15 -19 -21 -34 -13 -35 -13 -35 5 0 8 -15 19
-32 24 l-33 9 40 1 c37 2 39 3 21 16 -11 8 -28 13 -38 9 -10 -3 -18 -1 -18 5
0 5 -3 16 -6 25 -4 10 -1 16 9 16 14 0 14 4 -1 32 -9 18 -21 36 -27 40 -5 4
-6 10 -1 15 4 4 12 0 17 -9 6 -11 23 -16 54 -16 25 0 45 4 45 8 0 15 91 24
112 11 25 -15 63 -14 77 3 9 11 9 15 -1 19 -7 2 -2 2 11 0 18 -3 22 0 18 11
-7 19 11 31 39 28 12 -2 35 8 50 22 22 19 25 25 12 26 -9 0 -20 -4 -23 -10 -3
-5 -14 -10 -22 -10 -13 0 -11 6 10 28 30 31 66 107 67 138 0 14 8 24 23 29 13
4 17 8 10 12 -23 9 -14 23 15 23 20 0 23 -3 12 -10 -23 -14 -3 -25 23 -11 24
13 79 57 115 93 18 18 47 32 101 47 2 1 -2 -6 -9 -14z m-3230 -5 c-20 -13 -33
-13 -25 0 3 6 14 10 23 10 15 0 15 -2 2 -10z m2790 -10 c0 -5 -7 -10 -15 -10
-21 0 -19 -13 5 -35 26 -23 20 -29 -14 -14 -26 12 -31 24 -20 53 7 17 44 22
44 6z m187 -3 c3 -4 -2 -10 -11 -13 -10 -4 -24 0 -33 9 -14 14 -13 15 11 13
15 -2 29 -6 33 -9z m103 9 c0 -3 -4 -8 -10 -11 -5 -3 -10 -1 -10 4 0 6 5 11
10 11 6 0 10 -2 10 -4z m-3476 -15 c7 -10 -33 -23 -46 -15 -5 3 -6 10 -3 15 8
12 42 12 49 0z m214 -3 c-3 -7 -13 -15 -24 -17 -16 -3 -17 -1 -5 13 16 19 34
21 29 4z m4156 -15 c7 -19 -1 -33 -19 -33 -9 0 -13 11 -13 29 1 31 21 33 32 4z
m-2719 7 c3 -5 -1 -10 -9 -10 -9 0 -16 5 -16 10 0 6 4 10 9 10 6 0 13 -4 16
-10z m220 -30 c16 -30 9 -40 -13 -18 -12 12 -17 48 -7 48 2 0 11 -13 20 -30z
m1385 9 c0 -6 -4 -7 -10 -4 -5 3 -10 -3 -10 -14 0 -23 15 -28 24 -8 3 6 5 3 5
-8 -2 -34 1 -41 10 -26 16 25 24 -31 11 -77 -15 -56 -66 -121 -124 -156 -86
-54 -216 -52 -263 5 -13 15 -33 31 -43 34 -20 6 -51 65 -64 120 -6 27 -5 27
17 -10 13 -22 30 -39 38 -38 8 2 34 -18 58 -42 46 -46 61 -54 61 -32 0 7 -16
21 -35 31 -19 11 -35 25 -35 33 0 15 7 12 55 -23 36 -26 100 -48 119 -41 20 8
27 -3 15 -24 -7 -14 -6 -19 4 -19 21 0 41 26 27 35 -8 5 1 18 24 37 39 32 76
94 76 127 0 14 5 19 15 15 8 -4 15 -1 15 5 0 6 -4 11 -9 11 -5 0 -13 18 -19
39 -8 34 -7 41 7 44 20 4 31 -1 31 -14z m-3345 2 c7 -12 -25 -30 -42 -24 -7 3
-13 11 -13 19 0 16 45 20 55 5z m152 3 c-3 -3 -12 -4 -19 -1 -8 3 -5 6 6 6 11
1 17 -2 13 -5z m1133 -4 c0 -5 -7 -7 -15 -4 -8 4 -15 8 -15 10 0 2 7 4 15 4 8
0 15 -4 15 -10z m-840 -10 c0 -13 -11 -13 -30 0 -12 8 -11 10 8 10 12 0 22 -4
22 -10z m905 0 c3 -5 1 -10 -4 -10 -6 0 -11 5 -11 10 0 6 2 10 4 10 3 0 8 -4
11 -10z m443 -6 c19 -9 32 -23 32 -34 0 -10 2 -25 5 -32 4 -11 -8 -14 -57 -14
-59 0 -61 1 -28 10 56 16 62 27 32 59 -30 31 -27 33 16 11z m1672 12 c0 -3 -4
-8 -10 -11 -5 -3 -10 -1 -10 4 0 6 5 11 10 11 6 0 10 -2 10 -4z m-3372 -23
c-2 -12 -13 -19 -33 -20 -20 -1 -23 0 -7 4 12 2 22 11 22 19 0 8 5 14 11 14 6
0 9 -8 7 -17z m1362 8 c0 -5 3 -16 6 -24 3 -9 -3 -16 -15 -20 -14 -3 -19 -10
-15 -21 3 -9 1 -16 -5 -16 -6 0 -10 4 -8 9 3 13 -8 14 -69 1 -36 -8 -60 -8
-66 -2 -6 6 3 11 24 15 18 3 47 11 63 18 17 7 36 11 43 10 6 -1 12 3 12 9 0 5
-4 10 -10 10 -5 0 -10 5 -10 10 0 6 11 10 25 10 14 0 25 -4 25 -9z m-1100 -11
c0 -5 -2 -10 -4 -10 -3 0 -8 5 -11 10 -3 6 -1 10 4 10 6 0 11 -4 11 -10z
m1170 -4 c0 -9 -30 -14 -35 -6 -4 6 3 10 14 10 12 0 21 -2 21 -4z m202 -18
c-6 -6 -19 -7 -29 -3 -17 7 -17 8 2 15 24 9 41 2 27 -12z m-71 -5 c13 -15 11
-16 -16 -9 -41 10 -56 26 -23 26 14 0 32 -7 39 -17z m1189 -8 c-7 -9 -15 -13
-18 -10 -3 2 1 11 8 20 7 9 15 13 18 10 3 -2 -1 -11 -8 -20z m390 4 c0 -5 -7
-9 -15 -9 -9 0 -12 6 -9 15 6 15 24 11 24 -6z m714 0 c-4 -6 -19 -9 -36 -5
-23 4 -29 3 -25 -7 4 -10 -2 -13 -19 -9 -23 4 -23 5 -7 18 22 16 97 19 87 3z
m-2839 -9 c-3 -5 -11 -10 -16 -10 -6 0 -7 5 -4 10 3 6 11 10 16 10 6 0 7 -4 4
-10z m450 0 c3 -6 -4 -10 -17 -10 -18 0 -20 2 -8 10 19 12 18 12 25 0z m2873
-2 c-2 -3 8 -18 21 -32 14 -14 21 -29 18 -33 -4 -3 -3 -11 3 -18 8 -9 8 -58 0
-75 -1 -3 -3 -11 -4 -19 -2 -26 -23 -22 -29 6 -4 19 -1 32 11 41 15 11 14 12
-1 12 -9 0 -17 5 -17 10 0 6 5 10 10 10 6 0 10 5 10 11 0 8 -12 9 -37 4 -33
-6 -35 -5 -24 9 7 9 17 13 22 10 5 -3 9 6 9 20 0 14 -5 28 -10 31 -12 8 -2 27
12 23 5 -2 8 -6 6 -10z m-4298 -8 c0 -5 -5 -10 -11 -10 -5 0 -7 5 -4 10 3 6 8
10 11 10 2 0 4 -4 4 -10z m2938 -1 c-2 -6 -8 -10 -13 -10 -5 0 -11 4 -13 10
-2 6 4 11 13 11 9 0 15 -5 13 -11z m-1898 -9 c0 -5 -12 -10 -27 -9 l-28 1 25
8 c14 4 26 8 28 9 1 1 2 -3 2 -9z m340 0 c0 -5 -5 -10 -11 -10 -5 0 -7 5 -4
10 3 6 8 10 11 10 2 0 4 -4 4 -10z m161 -5 c19 -8 27 -14 19 -14 -26 -1 -60
11 -60 20 0 12 2 12 41 -6z m1153 -16 c-10 -16 -24 -9 -24 12 0 18 2 19 15 9
8 -7 12 -16 9 -21z m-2806 10 c-2 -6 -8 -10 -13 -10 -5 0 -11 4 -13 10 -2 6 4
11 13 11 9 0 15 -5 13 -11z m1219 -7 c1 -9 -9 -22 -23 -29 -28 -13 -28 -12
-12 22 13 29 33 33 35 7z m658 8 c3 -6 17 -7 29 -4 18 4 25 1 28 -14 4 -16 1
-19 -16 -15 -17 4 -18 3 -6 -6 19 -14 50 -14 50 -1 0 6 7 10 15 10 8 0 15 -4
15 -10 0 -5 3 -9 8 -8 15 3 41 -14 36 -25 -6 -17 16 -46 23 -29 9 23 25 12 19
-13 -6 -25 -6 -26 18 -10 27 18 48 13 40 -10 -4 -10 0 -12 14 -8 16 4 21 -1
24 -19 3 -23 9 -25 40 -13 13 5 15 2 11 -14 -4 -15 -1 -21 11 -21 9 0 16 5 16
11 0 5 5 7 10 4 6 -4 8 -16 4 -27 -4 -13 -2 -18 4 -14 6 3 12 0 15 -6 3 -10 7
-10 19 0 9 7 24 9 33 5 14 -5 16 -3 10 7 -6 10 -4 12 8 7 11 -4 20 1 27 13 15
28 12 38 -5 16 -16 -21 -19 -18 -9 8 9 23 34 20 34 -4 0 -10 9 -24 20 -30 11
-6 20 -17 20 -25 0 -8 5 -15 10 -15 6 0 10 5 10 11 0 5 4 7 10 4 6 -3 7 1 4 9
-7 18 7 21 23 5 12 -12 121 -21 137 -12 4 3 2 9 -5 13 -10 7 -10 12 0 23 9 12
9 16 -1 20 -7 3 -2 6 11 6 20 1 22 5 17 26 -6 23 -4 25 33 22 54 -4 59 -12 25
-42 -16 -14 -24 -26 -19 -27 6 0 15 -2 20 -2 6 -1 20 -11 33 -24 26 -26 31
-82 7 -82 -9 0 -18 -7 -22 -16 -3 -8 -11 -13 -18 -10 -7 2 -15 -5 -18 -16 -3
-11 -10 -17 -16 -14 -5 4 -12 2 -16 -4 -4 -6 -10 -8 -14 -5 -11 6 -53 -30 -44
-39 4 -3 -2 -12 -12 -20 -18 -13 -18 -14 4 -21 13 -4 28 -2 36 5 12 10 15 9
15 -4 0 -36 22 -75 52 -90 26 -13 32 -50 8 -52 -34 -2 -33 -6 10 -27 32 -15
44 -27 42 -39 -5 -25 -22 -23 -22 2 0 18 -2 19 -22 8 -20 -10 -21 -13 -5 -16
36 -8 10 -32 -36 -32 -18 0 -19 -2 -7 -10 8 -5 22 -7 32 -4 20 6 30 -8 22 -30
-7 -18 -34 -22 -34 -6 0 17 -50 32 -65 20 -9 -8 -15 -8 -20 0 -3 6 -11 8 -16
4 -5 -3 -7 -9 -4 -14 3 -5 1 -11 -5 -15 -5 -3 -10 1 -10 9 0 24 -21 30 -27 7
-7 -28 -37 -35 -68 -15 -24 16 -25 15 -25 -4 0 -26 -17 -37 -34 -22 -19 15
-66 2 -95 -27 -13 -12 -35 -24 -50 -24 -15 -1 -19 -3 -10 -6 11 -3 15 -11 12
-24 -3 -10 -6 -19 -8 -19 -1 0 -16 5 -33 11 -29 10 -30 12 -19 37 6 15 15 30
20 33 5 3 1 9 -9 13 -10 4 -24 0 -34 -9 -9 -8 -25 -15 -34 -15 -13 0 -16 -5
-12 -17 5 -11 -1 -24 -16 -36 l-23 -18 22 6 c15 4 30 0 44 -14 12 -11 26 -18
31 -15 5 3 12 -3 15 -15 3 -12 10 -21 17 -21 6 0 20 -11 30 -25 14 -18 22 -22
31 -15 10 8 13 6 11 -7 -1 -12 5 -17 17 -15 9 2 20 -4 23 -12 3 -8 12 -12 19
-9 8 2 25 -6 37 -20 13 -14 38 -33 57 -44 44 -24 52 -69 15 -83 -13 -5 -24
-14 -24 -20 0 -6 -12 -15 -26 -20 -14 -6 -22 -14 -19 -20 10 -16 -11 -12 -25
5 -15 18 -5 35 22 35 14 0 18 5 14 16 -3 9 -6 20 -6 25 0 18 -21 8 -29 -14
-11 -29 -72 -82 -80 -69 -8 12 -71 21 -77 10 -3 -4 2 -8 10 -8 9 0 16 -4 16
-9 0 -5 9 -7 20 -4 11 3 27 0 35 -7 13 -11 20 -9 40 10 14 13 25 18 25 11 0
-6 -7 -14 -15 -17 -8 -4 -15 -10 -15 -15 0 -4 7 -6 15 -3 11 4 13 2 9 -9 -8
-22 -31 -28 -38 -10 -5 12 -9 13 -21 3 -8 -6 -19 -9 -26 -5 -6 4 -25 -3 -41
-15 l-31 -23 5 32 c3 24 0 35 -13 41 -17 10 -75 3 -94 -10 -20 -14 -58 -19
-82 -9 -16 6 -22 6 -18 -1 4 -7 -16 -9 -59 -5 -47 3 -78 0 -105 -11 -22 -9
-50 -14 -63 -11 -21 4 -20 4 5 6 15 0 27 5 27 11 0 5 19 15 43 21 23 7 46 16
51 21 6 4 25 8 44 8 18 0 31 4 28 9 -3 5 14 14 39 20 25 6 49 19 55 31 6 10
26 22 44 26 24 4 33 10 29 20 -4 11 -10 11 -26 2 -29 -15 -200 -15 -205 1 -2
7 10 11 32 11 25 0 36 4 36 15 0 8 -4 15 -9 15 -5 0 -17 3 -27 7 -12 4 -15 3
-10 -5 4 -8 -3 -16 -20 -22 -21 -9 -29 -7 -40 7 -11 16 -9 18 19 21 18 2 35 7
39 10 13 13 -38 62 -66 64 -34 3 -28 23 8 24 34 1 44 11 21 21 -10 3 -26 14
-36 24 -16 16 -15 17 8 28 13 6 36 11 51 11 19 0 23 3 13 9 -7 5 -22 6 -32 4
-10 -3 -19 0 -19 6 0 6 7 11 15 11 19 0 61 26 94 57 l24 23 -24 -1 c-13 0 -37
-9 -54 -20 -49 -31 -69 -37 -87 -28 -25 14 -49 11 -70 -8 -17 -15 -18 -15 -18
3 0 16 11 22 58 32 58 13 119 56 137 98 7 17 8 17 12 2 4 -16 6 -16 28 -2 25
16 45 12 45 -9 0 -7 -9 -18 -20 -25 -12 -7 -18 -17 -15 -22 11 -17 32 -11 38
11 3 12 10 18 17 14 16 -10 56 20 74 56 20 40 20 39 -1 39 -25 0 -3 18 26 22
14 1 26 9 29 17 3 10 -2 12 -21 8 -33 -9 -49 12 -45 60 2 32 0 38 -14 35 -10
-2 -18 2 -18 8 0 6 5 8 10 5 6 -3 10 1 10 9 0 17 -20 21 -77 17 -19 -2 -33 2
-33 9 0 6 -10 3 -24 -7 -13 -10 -22 -21 -20 -24 2 -4 -3 -9 -11 -13 -22 -8
-18 -33 6 -39 16 -4 23 1 32 22 15 36 40 31 26 -5 -11 -30 -12 -44 -1 -27 5 8
12 9 22 2 8 -6 11 -12 5 -15 -5 -2 -37 -29 -70 -60 -53 -48 -60 -53 -63 -34
-3 19 -8 20 -50 15 -40 -4 -43 -4 -22 6 l25 10 -25 14 c-25 14 -25 14 -2 15
15 0 22 6 22 21 0 19 -2 19 -34 -6 -28 -21 -38 -24 -55 -16 -11 6 -33 11 -48
11 -16 0 -34 5 -41 12 -9 9 -13 7 -18 -5 -3 -9 -16 -18 -28 -18 -16 -1 -17 -2
-3 -6 18 -5 24 -23 8 -23 -16 0 -65 50 -50 50 8 1 3 7 -11 15 -32 18 -40 18
-40 0 0 -14 -3 -14 -30 0 -16 8 -29 20 -27 26 3 17 -62 19 -91 3 -15 -8 -36
-14 -47 -13 -18 0 -18 1 3 9 12 5 22 14 22 20 0 21 29 42 50 35 11 -3 20 -2
20 4 0 5 -15 15 -34 21 -19 6 -40 18 -46 26 -7 7 -20 14 -30 14 -13 0 -17 6
-13 19 4 17 8 18 24 8 14 -9 24 -9 37 -1 25 16 13 29 -27 29 -19 0 -36 5 -38
10 -2 6 10 10 27 10 35 0 41 18 8 25 -13 3 -23 12 -23 20 0 8 -7 21 -15 28
-13 12 -12 13 6 9 19 -4 22 0 22 34 1 22 4 49 7 60 5 14 2 25 -6 30 -11 7 -10
9 3 9 9 0 21 8 27 17 13 24 22 13 28 -36 5 -34 3 -41 -12 -41 -9 0 -19 -9 -22
-20 -3 -11 -10 -20 -16 -20 -6 0 -2 -6 9 -14 19 -15 19 -15 -1 -30 -18 -13
-16 -29 3 -32 4 -1 26 -4 49 -9 l41 -7 -17 -32 c-23 -42 -17 -68 17 -66 41 3
54 1 48 -8 -3 -5 1 -9 8 -9 7 0 34 -10 60 -23 42 -20 58 -22 134 -18 88 5 152
27 214 72 28 20 28 20 50 -1 30 -27 64 -44 72 -36 10 10 7 48 -5 60 -9 9 -5
14 15 19 14 3 26 11 26 16 0 6 -6 8 -14 5 -17 -7 -29 20 -47 97 -7 32 -19 60
-26 63 -7 3 -13 11 -13 19 0 8 -4 14 -10 14 -5 0 -10 -19 -10 -42 0 -56 -20
-120 -58 -182 -22 -37 -117 -75 -187 -75 -38 0 -65 7 -109 32 -33 18 -64 41
-70 51 -21 38 -50 66 -67 66 -16 0 -29 19 -29 41 0 14 28 11 33 -3 3 -7 4 4 2
25 -2 29 1 37 11 33 8 -3 14 1 14 9 0 8 -4 15 -10 15 -12 0 -13 27 -1 34 19
12 36 -6 37 -38 1 -62 31 -120 80 -156 86 -61 156 -49 215 39 28 44 40 111 19
111 -5 0 -10 5 -10 10 0 6 7 10 15 10 19 0 19 6 0 62 -9 26 -26 50 -38 57 -21
11 -20 11 6 6 21 -4 27 -2 27 11 0 15 2 15 21 -2 22 -19 22 -19 17 9 -5 27 5
37 17 17z m-508 -6 c-3 -4 1 -14 10 -23 15 -15 15 -16 -3 -19 -10 -2 -23 -8
-28 -13 -14 -13 -26 -11 -26 4 0 9 -10 12 -32 10 l-33 -4 25 20 c23 19 43 26
79 30 8 0 12 -2 8 -5z m-1033 -29 c11 -8 17 -18 13 -21 -11 -11 -57 6 -57 21
0 19 19 19 44 0z m2421 5 c3 -5 2 -10 -4 -10 -5 0 -13 5 -16 10 -3 6 -2 10 4
10 5 0 13 -4 16 -10z m-2775 -10 c0 -5 -4 -10 -10 -10 -5 0 -10 5 -10 10 0 6
5 10 10 10 6 0 10 -4 10 -10z m3890 0 c0 -12 -8 -12 -35 0 -18 8 -17 9 8 9 15
1 27 -3 27 -9z m-3010 -10 c12 -8 9 -10 -12 -10 -16 0 -28 5 -28 10 0 13 20
13 40 0z m286 -19 c-3 -5 -20 -14 -38 -20 -31 -11 -31 -11 -13 9 18 19 62 29
51 11z m2600 -4 c-26 -11 -27 -14 -12 -26 12 -10 14 -17 5 -27 -6 -8 -18 -14
-26 -14 -7 0 -16 -7 -19 -15 -4 -8 -12 -15 -20 -15 -8 0 -14 7 -14 15 0 8 8
15 18 15 11 0 27 9 37 20 17 18 16 19 -10 26 -18 4 -30 2 -36 -7 -4 -7 -11
-10 -15 -6 -10 10 -1 17 43 32 50 18 90 19 49 2z m179 3 c-3 -5 -11 -10 -16
-10 -6 0 -7 5 -4 10 3 6 11 10 16 10 6 0 7 -4 4 -10z m-3735 -25 c-27 -14 -36
-13 -25 4 3 6 16 11 28 11 21 -1 21 -1 -3 -15z m1145 5 c-3 -5 -13 -10 -21
-10 -8 0 -12 5 -9 10 3 6 13 10 21 10 8 0 12 -4 9 -10z m1390 0 c4 -6 11 -8
16 -5 5 4 9 2 9 -4 0 -17 -17 -22 -44 -11 -19 7 -26 6 -26 -2 0 -9 -3 -9 -11
-1 -6 6 -8 16 -5 22 9 14 53 14 61 1z m-2670 -10 c3 -5 1 -10 -4 -10 -6 0 -11
5 -11 10 0 6 2 10 4 10 3 0 8 -4 11 -10z m3750 -9 c-8 -13 -45 -15 -45 -2 0 5
10 11 23 13 27 5 31 3 22 -11z m-3508 3 c-3 -3 -12 -4 -19 -1 -8 3 -5 6 6 6
11 1 17 -2 13 -5z m933 -14 c0 -5 -4 -10 -9 -10 -6 0 -13 5 -16 10 -3 6 1 10
9 10 9 0 16 -4 16 -10z m2384 2 c8 -14 -8 -29 -46 -45 -42 -18 -53 -7 -13 11
14 6 25 18 25 27 0 16 25 21 34 7z m426 4 c0 -2 -7 -6 -15 -10 -8 -3 -15 -1
-15 4 0 6 7 10 15 10 8 0 15 -2 15 -4z m-3110 -39 c9 -3 3 -6 -12 -6 -20 -1
-28 4 -28 15 0 12 4 14 13 7 6 -6 19 -13 27 -16z m650 10 c0 -5 6 -7 13 -4 20
8 77 -20 77 -38 0 -19 -9 -19 -34 0 -16 12 -23 12 -48 -1 -16 -9 -36 -13 -44
-10 -16 6 -19 37 -4 52 13 13 40 14 40 1z m2245 3 c-3 -5 -18 -10 -33 -10 -21
0 -24 2 -12 10 20 13 53 13 45 0z m-3565 -25 c0 -8 -4 -15 -9 -15 -13 0 -22
16 -14 24 11 11 23 6 23 -9z m950 7 c0 -13 -12 -22 -22 -16 -10 6 -1 24 13 24
5 0 9 -4 9 -8z m-860 -12 c0 -13 -20 -13 -40 0 -12 8 -9 10 13 10 15 0 27 -4
27 -10z m640 2 c0 -14 -11 -21 -26 -15 -8 3 -11 9 -8 14 7 11 34 12 34 1z
m2660 -27 c0 -19 -31 -55 -46 -55 -8 0 -14 7 -12 17 2 11 -6 19 -22 23 -22 5
-23 7 -8 16 22 12 88 12 88 -1z m-2819 -5 c5 0 4 -6 -3 -13 -12 -14 -48 -12
-48 2 0 14 14 22 28 16 7 -3 18 -5 23 -5z m94 -10 c4 -7 -3 -8 -22 -4 -38 9
-42 14 -10 14 14 0 29 -5 32 -10z m-575 -15 c10 -12 10 -15 -4 -15 -9 0 -16 7
-16 15 0 8 2 15 4 15 2 0 9 -7 16 -15z m682 -10 c-5 -26 -26 -33 -38 -13 -4 6
1 17 11 25 27 19 33 16 27 -12z m173 15 c3 -5 2 -10 -4 -10 -5 0 -13 5 -16 10
-3 6 -2 10 4 10 5 0 13 -4 16 -10z m1380 0 c3 -5 1 -10 -4 -10 -6 0 -11 5 -11
10 0 6 2 10 4 10 3 0 8 -4 11 -10z m-1478 -6 c-3 -3 -12 -4 -19 -1 -8 3 -5 6
6 6 11 1 17 -2 13 -5z m-139 -30 c32 -22 71 -27 88 -13 16 13 56 8 62 -8 2 -9
-9 -13 -37 -13 -43 0 -55 -14 -21 -25 27 -9 25 -23 -4 -31 -30 -7 -66 11 -66
34 0 22 -84 58 -124 54 -27 -3 -29 -2 -16 13 18 21 78 15 118 -11z m442 -27
c0 -20 -25 1 -28 24 -2 23 -2 23 13 5 8 -11 15 -24 15 -29z m-1224 20 c4 -3
-2 -6 -12 -6 -11 1 -30 -3 -44 -7 -22 -7 -23 -6 -12 8 12 15 55 18 68 5z
m3464 -7 c0 -5 -7 -7 -15 -4 -8 4 -15 8 -15 10 0 2 7 4 15 4 8 0 15 -4 15 -10z
m717 4 c-3 -3 -12 -4 -19 -1 -8 3 -5 6 6 6 11 1 17 -2 13 -5z m-3467 -39 c0
-14 -2 -25 -4 -25 -2 0 -11 11 -20 25 -16 24 -16 25 4 25 15 0 20 -7 20 -25z
m363 10 c4 -8 2 -17 -2 -20 -5 -2 -11 4 -14 15 -6 23 8 27 16 5z m2327 6 c0
-11 -31 -24 -39 -16 -3 3 1 10 9 15 19 12 30 12 30 1z m-2765 -11 c-3 -5 -10
-10 -16 -10 -5 0 -9 5 -9 10 0 6 7 10 16 10 8 0 12 -4 9 -10z m315 -10 c11 -7
6 -10 -20 -10 -26 0 -31 3 -20 10 8 5 17 10 20 10 3 0 12 -5 20 -10z m2370
-14 c0 -17 -52 -39 -77 -33 -14 3 -12 6 12 15 17 7 37 16 45 21 20 13 20 13
20 -3z m-3220 -26 c-20 -13 -60 -13 -60 0 0 6 17 10 38 10 27 0 33 -3 22 -10z
m965 0 c3 -6 -1 -7 -9 -4 -18 7 -21 14 -7 14 6 0 13 -4 16 -10z m-1213 -22
c-7 -7 -12 -8 -12 -2 0 14 12 26 19 19 2 -3 -1 -11 -7 -17z m1138 12 c12 -8
12 -10 -3 -16 -20 -7 -47 1 -47 16 0 12 30 13 50 0z m-193 -16 c4 -10 8 -12
13 -4 3 6 14 8 23 4 9 -3 14 -10 11 -15 -3 -5 2 -9 10 -9 9 0 16 -4 16 -10 0
-5 -12 -10 -27 -10 -27 -1 -27 -1 -9 -15 11 -8 14 -15 8 -15 -20 0 -14 -18 8
-25 36 -11 21 -25 -25 -23 -37 2 -45 6 -45 21 0 12 -5 17 -14 14 -8 -3 -17 1
-20 9 -3 8 -14 14 -25 14 -14 0 -18 5 -14 20 5 18 0 20 -37 20 -29 0 -40 4
-38 13 6 15 97 22 111 8 6 -6 17 -11 25 -11 12 0 12 3 2 15 -10 12 -9 15 4 15
9 0 19 -7 23 -16z m109 1 c18 -14 17 -14 -13 -15 -23 0 -33 5 -33 15 0 19 21
19 46 0z m-916 -5 c0 -5 -8 -10 -17 -10 -15 0 -16 2 -3 10 19 12 20 12 20 0z
m-136 -24 c-6 -16 -34 -30 -42 -21 -6 5 28 34 40 35 4 0 5 -6 2 -14z m2675
-13 c29 -35 17 -43 -14 -9 -27 29 -30 36 -16 36 5 0 19 -12 30 -27z m1695 5
c12 -20 -8 -48 -34 -48 -16 0 -17 4 -7 35 11 37 23 40 41 13z m-3279 1 c-4 -6
1 -17 11 -24 18 -14 18 -14 -2 -15 -27 0 -59 24 -50 38 4 7 16 12 27 12 12 0
17 -4 14 -11z m78 -5 c26 -9 44 -20 41 -25 -3 -5 5 -13 18 -18 22 -9 22 -10
-5 -10 -16 -1 -26 3 -22 8 7 12 -26 31 -53 31 -11 0 -22 7 -26 15 -7 18 -9 18
47 -1z m1441 10 c25 -10 19 -22 -9 -16 -14 2 -22 8 -19 13 6 11 8 11 28 3z
m-2584 -23 c0 -5 8 -12 18 -14 9 -3 1 -4 -20 -3 -28 1 -34 4 -26 14 12 14 28
16 28 3z m-110 -36 c0 -8 -7 -15 -15 -15 -16 0 -20 12 -8 23 11 12 23 8 23 -8z
m3292 -7 c-7 -7 -12 -8 -12 -2 0 14 12 26 19 19 2 -3 -1 -11 -7 -17z m276 -4
c-9 -10 -24 -14 -33 -10 -23 9 -9 26 23 26 24 0 25 -1 10 -16z m-2364 -9 c11
-8 29 -15 40 -16 20 0 19 -1 -2 -12 -21 -9 -26 -8 -42 12 -11 16 -19 20 -24
12 -8 -12 -26 -6 -26 10 0 14 32 10 54 -6z m1846 -1 c0 -2 -7 -4 -15 -4 -8 0
-15 4 -15 10 0 5 7 7 15 4 8 -4 15 -8 15 -10z m-275 -22 c-21 -5 -45 5 -45 17
0 5 13 4 31 -2 21 -8 26 -13 14 -15z m-1420 8 c18 -8 18 -9 -5 -9 -14 0 -32 4
-40 9 -12 8 -12 10 5 9 11 0 29 -4 40 -9z m2235 0 c0 -5 -4 -10 -10 -10 -5 0
-10 5 -10 10 0 6 5 10 10 10 6 0 10 -4 10 -10z m-2450 -27 c0 -12 -31 -33 -48
-33 -25 0 -37 27 -14 33 24 5 62 5 62 0z m70 -19 c0 -11 5 -14 16 -10 35 14
97 19 90 8 -4 -6 -33 -14 -66 -18 -34 -4 -61 -12 -64 -20 -4 -10 -10 -10 -30
-1 -30 14 -34 37 -7 37 11 0 23 5 26 10 10 16 35 12 35 -6z m247 9 c-4 -3 1
-12 11 -19 15 -12 15 -13 -10 -14 -14 0 -35 -3 -45 -7 -14 -5 -13 -1 6 20 14
15 29 27 34 27 6 0 7 -3 4 -7z m2057 -10 c8 -20 -17 -43 -46 -43 -23 0 -24 36
0 49 25 15 39 13 46 -6z m246 2 c0 -16 -35 -21 -44 -6 -8 12 4 21 26 21 10 0
18 -7 18 -15z m-3763 -29 c-2 -6 -11 -12 -20 -14 -12 -2 -15 1 -11 12 3 9 1
16 -5 16 -6 0 -11 4 -11 10 0 6 10 5 25 -2 14 -6 24 -16 22 -22z m953 19 c0
-9 9 -15 25 -15 23 0 24 -2 13 -20 -10 -16 -19 -19 -38 -15 -31 8 -29 5 -23
38 6 28 23 38 23 12z m2117 9 c-3 -3 -12 -4 -19 -1 -8 3 -5 6 6 6 11 1 17 -2
13 -5z m-3037 -8 c0 -3 -4 -8 -10 -11 -5 -3 -10 -1 -10 4 0 6 5 11 10 11 6 0
10 -2 10 -4z m3655 -31 c0 -35 -32 -55 -101 -63 -35 -4 -44 -1 -53 16 -8 16
-6 25 9 45 20 26 43 32 110 32 32 0 35 -2 35 -30z m-2325 5 c0 -5 -6 -10 -14
-10 -8 0 -18 5 -21 10 -3 6 3 10 14 10 12 0 21 -4 21 -10z m185 -11 c16 -16
-19 -9 -40 7 -19 16 -19 16 5 9 14 -4 29 -11 35 -16z m1691 8 c7 -7 -24 -11
-58 -8 -10 1 -26 -3 -38 -9 -11 -6 -26 -8 -32 -4 -16 10 47 31 89 29 17 0 35
-4 39 -8z m-2370 -6 c13 -1 16 -51 3 -51 -19 0 -7 -16 22 -29 27 -12 29 -15
16 -28 -15 -16 -42 -9 -32 8 4 5 -1 9 -9 9 -9 0 -16 6 -16 14 0 23 -40 46 -80
46 l-35 1 35 18 c19 11 46 18 60 16 14 -2 30 -4 36 -4z m664 -30 l25 -11 -27
5 c-43 8 -78 24 -78 34 0 6 12 4 28 -4 15 -7 38 -18 52 -24z m575 29 c-3 -5
-10 -10 -16 -10 -5 0 -9 5 -9 10 0 6 7 10 16 10 8 0 12 -4 9 -10z m875 -9 c0
-5 -11 -16 -25 -25 -29 -19 -33 -11 -8 16 17 19 33 24 33 9z m-1706 -7 c23 -9
20 -23 -4 -17 -11 3 -20 9 -20 14 0 11 3 11 24 3z m485 -10 c13 -9 26 -13 30
-8 3 5 22 10 41 12 28 2 32 0 18 -8 -9 -6 -15 -16 -12 -24 5 -14 -10 -14 -63
-2 -18 4 -33 14 -33 21 0 7 -6 16 -12 18 -7 3 -8 6 -3 6 6 1 21 -6 34 -15z
m-732 -11 c4 -10 -26 -27 -34 -20 -2 2 -1 12 3 21 7 18 25 17 31 -1z m423 -4
c0 -5 -7 -9 -15 -9 -8 0 -15 7 -15 15 0 9 6 12 15 9 8 -4 15 -10 15 -15z m170
5 c14 -8 17 -13 7 -10 -10 3 -31 6 -45 6 -21 0 -24 2 -12 10 19 12 20 12 50
-6z m1265 -24 c-3 -4 -16 -10 -30 -12 -24 -5 -24 -4 -10 12 8 9 15 23 15 31 1
10 5 9 15 -5 8 -10 12 -22 10 -26z m-1165 16 c0 -8 12 -23 27 -34 l27 -19 -50
-1 c-27 -1 -56 3 -64 9 -11 8 -5 9 23 4 37 -6 38 -5 32 17 -4 13 -13 26 -19
30 -7 5 -4 8 7 8 9 0 17 -6 17 -14z m390 4 c0 -5 -4 -10 -10 -10 -5 0 -10 5
-10 10 0 6 5 10 10 10 6 0 10 -4 10 -10z m-60 -25 c0 -14 -4 -25 -10 -25 -11
0 -14 33 -3 43 11 11 13 8 13 -18z m-935 5 c-3 -5 -12 -10 -20 -10 -8 0 -17 5
-20 10 -4 6 5 10 20 10 15 0 24 -4 20 -10z m3275 -5 c11 -13 8 -15 -15 -15
-23 0 -26 2 -15 15 7 8 14 15 15 15 1 0 8 -7 15 -15z m-2785 -34 c-7 -6 -55
21 -55 31 0 5 13 1 30 -8 16 -10 27 -20 25 -23z m285 4 c-29 -31 -18 -46 13
-17 31 29 52 30 35 2 -16 -24 -70 -44 -98 -35 -16 5 -18 10 -11 19 6 7 8 16 4
19 -3 4 3 7 14 7 11 0 28 9 38 20 10 11 21 18 23 15 3 -3 -5 -16 -18 -30z
m1385 15 c13 -6 15 -9 5 -9 -8 0 -22 4 -30 9 -18 12 -2 12 25 0z m-335 -3 c0
-2 -9 -14 -20 -27 -11 -13 -20 -18 -20 -12 0 6 7 18 16 26 15 15 24 20 24 13z
m120 -27 c-6 -11 -18 -20 -27 -20 -14 0 -14 2 2 20 10 11 22 20 27 20 5 0 4
-9 -2 -20z m194 1 c17 -6 17 -8 4 -14 -20 -7 -58 2 -58 14 0 11 27 11 54 0z
m-1800 -25 c-10 -8 -21 -12 -24 -9 -3 2 4 11 14 19 11 7 22 12 25 9 2 -3 -4
-12 -15 -19z m1416 20 c0 -2 -11 -6 -25 -8 -14 -3 -25 -1 -25 3 0 5 11 9 25 9
14 0 25 -2 25 -4z m755 -6 c-3 -5 -13 -10 -21 -10 -8 0 -14 5 -14 10 0 6 9 10
21 10 11 0 17 -4 14 -10z m-3471 -8 c2 -4 -4 -13 -15 -20 -15 -10 -19 -10 -19
1 0 24 23 36 34 19z m1561 -2 c8 -13 -5 -13 -25 0 -13 8 -13 10 2 10 9 0 20
-4 23 -10z m-721 -29 c6 -9 -40 -22 -48 -14 -2 2 -2 13 1 23 4 15 9 17 24 10
10 -6 20 -14 23 -19z m769 22 c-7 -2 -19 -2 -25 0 -7 3 -2 5 12 5 14 0 19 -2
13 -5z m1046 -45 c-5 -9 -18 -22 -29 -28 -21 -11 -40 -13 -25 -2 19 14 35 51
28 68 -5 14 -4 14 15 -2 16 -13 19 -22 11 -36z m311 38 c0 -8 -7 -16 -15 -20
-8 -3 -15 -4 -15 -2 0 3 -3 11 -6 20 -4 12 0 16 15 16 12 0 21 -6 21 -14z
m-191 -3 c-4 -25 3 -34 20 -28 22 7 53 -4 45 -16 -3 -5 -20 -9 -37 -9 l-32 -1
30 -13 c25 -12 27 -15 13 -21 -10 -4 -18 -13 -18 -21 0 -15 42 -29 62 -21 8 4
7 6 -4 6 -17 1 -17 2 0 19 23 23 93 45 86 27 -3 -7 -18 -15 -34 -18 -33 -7
-43 -34 -22 -59 18 -21 -1 -25 -20 -5 -7 8 -19 13 -28 11 -78 -15 -90 -27 -29
-32 17 -1 59 -13 93 -26 34 -13 68 -26 76 -29 12 -4 11 -6 -2 -6 -10 -1 -18
-5 -18 -10 0 -5 8 -12 18 -14 11 -3 7 -5 -10 -6 -15 0 -33 7 -40 17 -14 19
-60 42 -83 42 -28 0 -15 -18 20 -30 38 -12 46 -34 18 -45 -17 -6 -17 -7 0 -16
9 -6 15 -14 13 -18 -3 -4 13 -18 34 -30 46 -26 52 -17 13 17 -23 20 -24 23 -8
18 11 -3 47 -13 80 -21 33 -9 63 -19 68 -24 4 -4 -47 -15 -113 -25 -66 -10
-120 -22 -120 -27 0 -5 5 -9 11 -9 5 0 28 -14 49 -31 32 -26 39 -37 36 -61 -5
-40 -11 -43 -35 -17 -16 17 -18 25 -9 31 10 7 7 13 -11 26 -13 9 -34 27 -48
40 -28 25 -48 27 -83 7 -19 -11 -21 -14 -7 -15 9 0 17 -6 17 -14 0 -22 -16
-28 -30 -11 -7 8 -22 15 -34 15 -11 0 -30 7 -40 15 -11 8 -28 12 -38 9 -11 -3
-26 0 -35 8 -12 9 -15 9 -9 1 5 -10 -1 -11 -24 -7 -19 4 -30 2 -30 -5 0 -8 -5
-8 -19 1 -15 9 -17 16 -9 25 7 9 6 14 -3 18 -27 10 -19 58 14 93 18 18 30 36
27 40 -3 4 5 8 18 10 12 2 20 8 17 13 -7 11 26 58 41 59 7 0 15 11 18 25 4 15
14 25 24 25 11 0 26 19 41 53 13 28 29 58 34 65 10 13 48 17 46 5z m1434 -24
c-6 -6 -19 -9 -29 -6 -17 3 -16 5 6 14 28 12 39 8 23 -8z m-878 -8 c8 -14 -34
-24 -49 -12 -7 6 -17 7 -21 3 -5 -4 -5 -1 -1 6 8 14 62 16 71 3z m55 -5 c0 -3
-4 -8 -10 -11 -5 -3 -10 -1 -10 4 0 6 5 11 10 11 6 0 10 -2 10 -4z m-2510 -16
c0 -5 -11 -10 -25 -10 -14 0 -25 5 -25 10 0 6 11 10 25 10 14 0 25 -4 25 -10z
m747 -14 c8 -8 -35 -8 -64 0 -13 4 -23 10 -23 14 0 8 77 -4 87 -14z m1268 14
c-3 -5 -11 -10 -16 -10 -6 0 -7 5 -4 10 3 6 11 10 16 10 6 0 7 -4 4 -10z
m-2987 -7 c-9 -2 -20 -13 -23 -23 -3 -10 -16 -20 -28 -22 -14 -2 -21 -10 -21
-20 1 -10 -2 -15 -7 -12 -12 7 -11 34 1 34 6 0 10 9 10 19 0 19 20 28 65 28
15 1 16 0 3 -4z m1022 -13 c0 -5 -4 -10 -10 -10 -5 0 -10 5 -10 10 0 6 5 10
10 10 6 0 10 -4 10 -10z m140 -26 c0 -2 -7 -4 -15 -4 -8 0 -15 4 -15 10 0 5 7
7 15 4 8 -4 15 -8 15 -10z m335 -2 c-3 -3 -11 0 -18 7 -9 10 -8 11 6 5 10 -3
15 -9 12 -12z m-1310 -12 c-3 -5 -23 -10 -43 -10 -28 0 -33 3 -22 10 20 13 73
13 65 0z m-85 -30 c0 -5 -7 -10 -16 -10 -8 0 -12 5 -9 10 3 6 10 10 16 10 5 0
9 -4 9 -10z m1119 1 c7 -5 10 -14 6 -20 -5 -9 -10 -9 -21 0 -26 22 -14 38 15
20z m1876 -1 c3 -6 -1 -7 -9 -4 -18 7 -21 14 -7 14 6 0 13 -4 16 -10z m519 4
c19 -7 9 -34 -13 -34 -25 0 -33 11 -20 27 13 15 12 15 33 7z m84 -11 c-10 -2
-26 -2 -35 0 -10 3 -2 5 17 5 19 0 27 -2 18 -5z m-2028 -17 c0 -2 -9 -6 -20
-9 -11 -3 -20 -1 -20 4 0 5 9 9 20 9 11 0 20 -2 20 -4z m2365 -11 c6 -2 -16
-4 -47 -4 -32 -1 -58 3 -58 8 0 8 79 5 105 -4z m429 7 c5 -8 -288 -5 -324 2
-8 2 60 4 152 5 92 0 169 -3 172 -7z m-1254 -27 c0 -13 -4 -14 -20 -5 -11 6
-20 13 -20 15 0 3 9 5 20 5 11 0 20 -7 20 -15z m-3227 -2 c-7 -2 -19 -2 -25 0
-7 3 -2 5 12 5 14 0 19 -2 13 -5z m1720 0 c-7 -2 -19 -2 -25 0 -7 3 -2 5 12 5
14 0 19 -2 13 -5z m1452 -4 c10 -15 -1 -23 -20 -15 -9 3 -13 10 -10 16 8 13
22 13 30 -1z m1306 -13 c-6 -7 -33 -16 -59 -19 -58 -7 -170 -26 -197 -34 -14
-3 -17 -2 -10 5 6 6 66 20 134 31 69 12 127 23 129 26 11 11 14 4 3 -9z
m-3626 -6 c3 -5 -1 -10 -9 -10 -8 0 -18 5 -21 10 -3 6 1 10 9 10 8 0 18 -4 21
-10z m-5 -40 c0 -5 -4 -10 -10 -10 -5 0 -10 5 -10 10 0 6 5 10 10 10 6 0 10
-4 10 -10z m88 3 c-16 -2 -40 -2 -55 0 -16 2 -3 4 27 4 30 0 43 -2 28 -4z
m662 -13 c-8 -5 -26 -10 -40 -10 -20 0 -22 2 -10 10 8 5 26 10 40 10 20 0 22
-2 10 -10z m2597 4 c-3 -3 -12 -4 -19 -1 -8 3 -5 6 6 6 11 1 17 -2 13 -5z
m-3317 -19 c-7 -8 -19 -15 -27 -15 -11 0 -11 3 -1 15 18 20 45 21 28 0z m850
5 c-19 -13 -30 -13 -30 0 0 6 10 10 23 10 18 0 19 -2 7 -10z m96 -14 c-3 -13
-1 -26 4 -28 6 -2 -6 -8 -25 -14 -28 -9 -35 -8 -35 2 0 7 9 16 21 19 14 5 19
13 16 26 -3 12 0 19 10 19 11 0 14 -7 9 -24z m-1826 -16 c-20 -13 -43 -13 -35
0 3 6 16 10 28 10 18 0 19 -2 7 -10z m1719 -21 c-8 -5 -21 -9 -29 -9 -12 1
-11 4 4 15 10 8 23 12 29 8 5 -3 3 -9 -4 -14z m-1784 1 c-3 -5 -11 -10 -16
-10 -6 0 -7 5 -4 10 3 6 11 10 16 10 6 0 7 -4 4 -10z m140 -10 c-3 -5 -11 -10
-16 -10 -6 0 -7 5 -4 10 3 6 11 10 16 10 6 0 7 -4 4 -10z m3195 -10 c-8 -5
-17 -7 -19 -4 -3 3 1 9 9 14 8 5 17 7 19 4 3 -3 -1 -9 -9 -14z m70 -10 c-27
-7 -50 -3 -50 9 0 16 13 19 43 8 32 -11 32 -11 7 -17z m60 21 c0 -5 -9 -7 -20
-4 -11 3 -20 7 -20 9 0 2 9 4 20 4 11 0 20 -4 20 -9z m-1546 -17 c30 -11 -3
-34 -48 -34 l-41 0 25 20 c27 21 39 24 64 14z m1683 0 c-3 -3 -12 -4 -19 -1
-8 3 -5 6 6 6 11 1 17 -2 13 -5z m-1867 -14 c20 -6 21 -8 5 -8 -11 0 -29 3
-40 8 -25 11 1 11 35 0z m-140 -11 c-14 -6 -54 -12 -90 -14 l-65 -4 70 13 c89
17 120 19 85 5z m210 -19 c0 -5 -9 -14 -20 -20 -11 -6 -20 -17 -20 -25 0 -8
-10 -20 -22 -26 -32 -17 -49 -41 -44 -61 3 -13 -2 -18 -19 -18 -13 0 -32 -3
-42 -6 -14 -4 -13 -1 6 15 23 21 22 22 -18 33 -8 3 1 11 22 21 46 22 53 34 26
42 -16 6 -18 9 -8 15 7 5 17 6 22 3 4 -3 16 2 25 10 9 9 31 17 47 20 17 2 33
5 38 6 4 0 7 -3 7 -9z m-615 -10 c-3 -5 -10 -10 -16 -10 -5 0 -9 5 -9 10 0 6
7 10 16 10 8 0 12 -4 9 -10z m163 3 c-15 -2 -42 -2 -60 0 -18 2 -6 4 27 4 33
0 48 -2 33 -4z m-313 -33 c3 -5 -3 -10 -15 -10 -12 0 -18 5 -15 10 3 6 10 10
15 10 5 0 12 -4 15 -10z m1040 0 c-3 -5 -10 -10 -16 -10 -5 0 -9 5 -9 10 0 6
7 10 16 10 8 0 12 -4 9 -10z m1472 4 c-3 -3 -12 -4 -19 -1 -8 3 -5 6 6 6 11 1
17 -2 13 -5z m-3354 -11 c-7 -2 -19 -2 -25 0 -7 3 -2 5 12 5 14 0 19 -2 13 -5z
m2602 -13 c3 -5 -1 -10 -10 -10 -9 0 -13 5 -10 10 3 6 8 10 10 10 2 0 7 -4 10
-10z m439 -2 l41 -13 -30 -6 c-17 -3 -42 0 -57 8 -52 25 -24 32 46 11z m-674
-8 c0 -5 -5 -10 -11 -10 -5 0 -7 5 -4 10 3 6 8 10 11 10 2 0 4 -4 4 -10z m165
0 c3 -5 1 -10 -4 -10 -6 0 -11 5 -11 10 0 6 2 10 4 10 3 0 8 -4 11 -10z m308
-8 c10 -10 14 -21 11 -25 -9 -9 -44 16 -44 30 0 18 14 16 33 -5z m790 11 c-7
-2 -21 -2 -30 0 -10 3 -4 5 12 5 17 0 24 -2 18 -5z m-3159 -11 c10 -17 -13
-35 -44 -34 -37 1 -62 18 -39 26 44 15 77 18 83 8z m3223 2 c-3 -3 -12 -4 -19
-1 -8 3 -5 6 6 6 11 1 17 -2 13 -5z m40 -10 c-3 -3 -12 -4 -19 -1 -8 3 -5 6 6
6 11 1 17 -2 13 -5z m352 -24 c14 -3 27 -12 29 -18 2 -8 -15 -5 -50 9 -84 33
-78 35 21 9z m-3280 7 c-2 -1 -12 -9 -21 -16 -15 -12 -18 -11 -18 3 0 10 8 16
22 16 12 0 19 -1 17 -3z m-341 -29 c-3 -7 -15 -15 -28 -16 -21 -3 -22 -2 -11
12 16 19 44 21 39 4z m1092 2 c0 -5 -4 -10 -10 -10 -5 0 -10 5 -10 10 0 6 5
10 10 10 6 0 10 -4 10 -10z m-639 -10 c10 -6 19 -16 19 -23 0 -18 -47 -20 -54
-2 -3 8 -12 15 -21 15 -8 0 -15 5 -15 10 0 13 46 13 71 0z m1112 -11 c5 -18 2
-20 -16 -15 -12 3 -28 6 -34 6 -19 0 -16 18 5 23 33 9 40 7 45 -14z m-1483 1
c0 -5 -5 -10 -11 -10 -5 0 -7 5 -4 10 3 6 8 10 11 10 2 0 4 -4 4 -10z m60 6
c0 -3 -4 -8 -10 -11 -5 -3 -10 -1 -10 4 0 6 5 11 10 11 6 0 10 -2 10 -4z
m2765 -6 c3 -6 -1 -7 -9 -4 -18 7 -21 14 -7 14 6 0 13 -4 16 -10z m922 -61
c80 -39 142 -73 139 -76 -5 -5 -296 135 -296 143 0 9 19 1 157 -67z m-848 25
c14 -12 -19 -1 -35 12 -18 14 -18 14 6 3 14 -6 27 -13 29 -15z m-2982 6 c7 0
10 -7 7 -15 -4 -9 0 -15 10 -15 21 0 20 -7 -3 -36 -11 -13 -17 -33 -14 -43 3
-12 -2 -20 -16 -24 -15 -3 -19 -10 -15 -22 4 -9 13 -14 20 -11 45 18 49 19 37
6 -8 -8 -9 -18 -4 -24 12 -14 -35 -70 -49 -61 -6 4 -17 1 -25 -5 -12 -10 -16
-8 -24 11 -5 14 -5 28 0 34 5 5 9 19 9 32 0 13 6 23 13 23 6 1 2 9 -10 19 -25
21 -21 31 13 31 13 0 26 5 29 10 6 10 -7 14 -33 11 -10 -2 -11 2 -2 18 6 11 7
33 4 47 -6 25 -5 27 17 21 13 -4 29 -7 36 -7z m1170 -6 c8 -22 -27 -50 -39
-31 -7 9 -13 6 -25 -10 -8 -13 -23 -23 -32 -23 -20 -1 -51 -24 -51 -39 0 -6
-13 -11 -29 -11 -27 0 -29 2 -22 27 4 14 17 33 29 41 20 13 22 13 22 -3 0 -28
50 -10 84 30 32 38 53 44 63 19z m88 -4 c3 -5 -2 -10 -12 -10 -10 0 -29 -3
-43 -6 -17 -5 -22 -3 -15 4 9 9 29 16 57 21 4 0 10 -3 13 -9z m232 -12 c-2
-31 -27 -49 -59 -42 -23 5 -30 1 -40 -21 -10 -23 -13 -24 -18 -9 -9 24 34 68
59 61 11 -2 26 4 35 14 21 25 25 24 23 -3z m33 18 c0 -3 -4 -8 -10 -11 -5 -3
-10 -1 -10 4 0 6 5 11 10 11 6 0 10 -2 10 -4z m1510 -26 c8 -5 11 -10 5 -10
-5 0 -17 5 -25 10 -8 5 -10 10 -5 10 6 0 17 -5 25 -10z m-2096 -24 c-3 -7 -17
-18 -32 -25 -27 -11 -27 -11 3 14 35 29 36 29 29 11z m2169 -1 c18 -8 66 -28
107 -44 41 -17 67 -30 57 -30 -15 -1 -205 73 -216 84 -10 11 23 4 52 -10z
m-1755 -66 c-7 -13 -17 -27 -23 -31 -17 -13 -45 -9 -45 7 0 8 5 15 10 15 6 0
20 11 32 25 26 30 46 18 26 -16z m-478 26 c0 -2 -10 -10 -22 -16 -21 -11 -22
-11 -9 4 13 16 31 23 31 12z m3145 -43 c-3 -3 -11 0 -18 7 -9 10 -8 11 6 5 10
-3 15 -9 12 -12z m-2980 -12 c-3 -5 -16 -10 -28 -10 -18 0 -19 2 -7 10 20 13
43 13 35 0z m75 0 c0 -11 -51 -60 -63 -60 -7 0 52 68 61 70 1 0 2 -4 2 -10z
m126 -17 c-10 -10 -19 5 -10 18 6 11 8 11 12 0 2 -7 1 -15 -2 -18z m-36 -11
c0 -4 -9 -13 -20 -20 -11 -7 -20 -8 -20 -2 0 5 -7 7 -15 4 -8 -4 -15 -1 -15 4
0 11 21 19 53 21 9 0 17 -2 17 -7z m787 -44 c-3 -8 -6 -5 -6 6 -1 11 2 17 5
13 3 -3 4 -12 1 -19z m-1976 -40 c-5 -13 -14 -22 -20 -20 -6 1 -11 -2 -11 -8
0 -5 -9 -10 -21 -10 -30 0 -19 22 22 42 19 9 35 17 36 18 1 0 -2 -10 -6 -22z
m954 -29 c-28 -28 -59 -55 -70 -60 -11 -6 9 17 45 50 78 74 93 80 25 10z m258
-14 c-3 -9 -8 -14 -10 -11 -3 3 -2 9 2 15 9 16 15 13 8 -4z m730 -31 c-4 -10
-9 -12 -15 -6 -12 12 -1 35 12 27 5 -3 6 -13 3 -21z m-1992 7 c-11 -7 -9 -10
8 -16 14 -4 20 -12 17 -21 -5 -13 10 -29 28 -29 17 0 18 -25 2 -31 -25 -10
-19 -27 7 -22 23 4 23 4 9 -24 -8 -16 -12 -31 -10 -33 6 -7 68 18 138 54 166
86 256 131 264 131 15 0 -95 -70 -120 -76 -13 -3 -28 -12 -35 -20 -6 -8 -15
-14 -20 -14 -25 0 -181 -84 -195 -105 -8 -13 -31 -29 -50 -35 -41 -14 -44 -30
-6 -31 16 -1 20 -3 10 -6 -19 -5 -24 -18 -9 -27 10 -7 51 27 51 43 0 19 17 12
23 -9 7 -26 -24 -47 -73 -52 -31 -3 -35 0 -32 18 2 16 -4 23 -23 28 -34 9 -33
39 3 65 20 15 23 20 10 21 -23 0 -37 29 -31 63 4 18 1 27 -7 27 -9 0 -7 7 5
20 18 20 18 21 0 33 -26 20 -11 57 23 57 19 0 23 -3 13 -9z m1220 -48 c-12
-20 -14 -14 -5 12 4 9 9 14 11 11 3 -2 0 -13 -6 -23z m2759 -3 c0 -5 -2 -10
-4 -10 -3 0 -8 5 -11 10 -3 6 -1 10 4 10 6 0 11 -4 11 -10z m-3880 -10 c0 -5
-4 -10 -10 -10 -5 0 -10 5 -10 10 0 6 5 10 10 10 6 0 10 -4 10 -10z m1116 -47
c-8 -16 -23 -37 -33 -48 -32 -35 -132 -191 -151 -236 -20 -46 -52 -82 -52 -59
0 17 -29 -7 -41 -35 -17 -38 -48 -80 -107 -144 -19 -20 -29 -27 -23 -15 5 11
17 26 25 34 9 7 16 17 16 22 0 10 71 104 114 151 15 17 71 101 124 186 107
175 107 176 99 141 l-6 -25 20 28 c12 15 23 27 25 27 3 0 -2 -12 -10 -27z
m-303 -17 c-18 -21 -32 -30 -38 -24 -7 6 -4 13 8 19 9 6 23 16 30 24 26 31 27
13 0 -19z m-353 16 c0 -4 -26 -34 -58 -67 -32 -33 -63 -67 -68 -75 -13 -21
-79 -78 -68 -59 17 30 79 102 133 156 56 54 61 58 61 45z m511 -23 c-5 -13
-10 -19 -10 -12 -1 15 10 45 15 40 3 -2 0 -15 -5 -28z m-221 -35 c0 -8 -32
-33 -43 -34 -4 0 -2 9 5 20 12 19 38 28 38 14z m-321 -47 c-2 -1 -13 -9 -24
-17 -19 -14 -19 -14 -6 3 7 9 18 17 24 17 6 0 8 -1 6 -3z m-709 -31 c0 -8 -4
-18 -10 -21 -5 -3 -10 3 -10 14 0 12 5 21 10 21 6 0 10 -6 10 -14z m-346 -20
c-7 -19 -44 -28 -44 -10 0 8 6 11 15 8 10 -4 15 0 15 11 0 9 4 14 10 10 5 -3
7 -12 4 -19z m4356 -21 c0 -8 -2 -15 -4 -15 -2 0 -6 7 -10 15 -3 8 -1 15 4 15
6 0 10 -7 10 -15z m-2880 -25 c-6 -11 -13 -20 -16 -20 -2 0 0 9 6 20 6 11 13
20 16 20 2 0 0 -9 -6 -20z m-207 -21 c-30 -12 -34 -10 -23 12 10 17 14 18 27
8 13 -12 13 -14 -4 -20z m-187 6 c-26 -19 -42 -19 -26 0 7 8 20 15 29 15 13
-1 13 -3 -3 -15z m-781 -5 c-3 -5 -11 -10 -16 -10 -6 0 -7 5 -4 10 3 6 11 10
16 10 6 0 7 -4 4 -10z m-262 -7 c9 -9 -12 -33 -29 -33 -17 0 -18 27 -1 33 18
8 23 8 30 0z m4368 -19 l24 -27 -27 18 c-16 9 -28 21 -28 26 0 14 5 11 31 -17z
m-3371 -3 c0 -5 -7 -12 -16 -15 -24 -9 -28 -7 -14 9 14 17 30 20 30 6z m-186
-35 c-21 -15 -30 -14 -19 3 3 6 14 11 23 11 13 0 13 -2 -4 -14z m-34 -29 c0
-2 -14 -16 -32 -33 -30 -28 -30 -17 0 19 13 15 32 23 32 14z m90 -25 c-14 -9
-41 -32 -61 -49 -20 -18 -42 -33 -48 -33 -6 0 -11 -4 -11 -10 0 -5 7 -10 15
-10 13 0 13 -3 3 -13 -12 -14 -48 -12 -48 2 0 12 52 71 63 71 6 0 19 7 29 17
22 19 59 41 73 41 6 1 -1 -7 -15 -16z m474 -6 c-3 -9 -10 -16 -15 -16 -5 0 -4
9 3 20 14 22 21 20 12 -4z m-374 -6 c0 -5 -5 -10 -11 -10 -5 0 -7 5 -4 10 3 6
8 10 11 10 2 0 4 -4 4 -10z m491 -53 c-5 -7 -27 -46 -49 -87 -39 -77 -134
-235 -147 -248 -18 -17 10 45 51 110 24 40 44 77 44 83 0 5 13 29 28 52 15 23
38 60 52 83 13 23 26 36 28 30 2 -6 -1 -16 -7 -23z m-169 -15 c-11 -11 -22
-26 -24 -33 -3 -8 -8 -11 -12 -8 -4 4 5 21 20 38 14 18 29 30 31 27 3 -2 -4
-13 -15 -24z m3248 -94 c0 -17 -10 -6 -25 25 l-16 32 20 -25 c11 -14 21 -28
21 -32z m-3676 27 c-4 -8 -11 -15 -16 -15 -6 0 -5 6 2 15 7 8 14 15 16 15 2 0
1 -7 -2 -15z m365 -20 c-21 -35 -29 -42 -29 -26 0 9 39 61 45 61 3 0 -5 -16
-16 -35z m-493 -12 c-10 -10 -19 5 -10 18 6 11 8 11 12 0 2 -7 1 -15 -2 -18z
m-266 -107 c0 -3 -4 -8 -10 -11 -5 -3 -10 -1 -10 4 0 6 5 11 10 11 6 0 10 -2
10 -4z m390 -6 c0 -5 -4 -10 -9 -10 -6 0 -13 5 -16 10 -3 6 1 10 9 10 9 0 16
-4 16 -10z m40 -5 c0 -8 -4 -15 -10 -15 -5 0 -10 7 -10 15 0 8 5 15 10 15 6 0
10 -7 10 -15z m3550 -37 c0 -5 -6 -8 -14 -5 -8 3 -17 1 -19 -6 -2 -7 -7 -9
-11 -6 -10 9 23 41 35 34 5 -4 9 -11 9 -17z m-3230 -2 c0 -3 -4 -8 -10 -11 -5
-3 -10 -1 -10 4 0 6 5 11 10 11 6 0 10 -2 10 -4z m3277 -22 c-9 -9 -28 6 -21
18 4 6 10 6 17 -1 6 -6 8 -13 4 -17z m-3612 -1 c-4 -10 -8 -24 -9 -32 -3 -15
-34 -41 -49 -41 -6 0 -3 8 6 18 10 10 17 22 17 27 0 9 30 45 38 45 2 0 1 -8
-3 -17z m225 3 c0 -3 -4 -8 -10 -11 -5 -3 -10 -1 -10 4 0 6 5 11 10 11 6 0 10
-2 10 -4z m77 -31 c-4 -8 -11 -15 -17 -15 -7 0 -7 6 0 21 13 23 26 19 17 -6z
m-693 -10 c-4 -8 -8 -15 -10 -15 -2 0 -4 7 -4 15 0 8 4 15 10 15 5 0 7 -7 4
-15z m-304 -19 c0 -25 -12 -46 -26 -46 -17 0 -17 2 -2 35 12 27 28 33 28 11z
m65 -32 c-19 -29 -9 -44 28 -44 19 0 20 -4 11 -37 -4 -16 -14 -23 -30 -23 -24
0 -33 23 -14 35 6 3 10 10 10 16 0 14 -26 11 -40 -6 -14 -17 -30 -11 -30 13 0
16 56 71 74 72 4 0 1 -12 -9 -26z m968 -38 c-15 -25 -31 -46 -35 -46 -7 0 28
77 45 99 24 29 16 -9 -10 -53z m-363 -26 c0 -5 -9 -10 -21 -10 -11 0 -17 5
-14 10 3 6 13 10 21 10 8 0 14 -4 14 -10z"/>
<path d="M3190 3720 c-6 -12 -9 -24 -7 -27 3 -2 11 5 17 17 6 12 9 24 7 27 -3
2 -11 -5 -17 -17z"/>
<path d="M948 3143 c7 -3 16 -2 19 1 4 3 -2 6 -13 5 -11 0 -14 -3 -6 -6z"/>
<path d="M728 2933 c6 -2 18 -2 25 0 6 3 1 5 -13 5 -14 0 -19 -2 -12 -5z"/>
<path d="M888 2693 c7 -3 16 -2 19 1 4 3 -2 6 -13 5 -11 0 -14 -3 -6 -6z"/>
<path d="M905 2670 c-3 -5 1 -10 10 -10 9 0 13 5 10 10 -3 6 -8 10 -10 10 -2
0 -7 -4 -10 -10z"/>
<path d="M895 2580 c3 -5 10 -10 16 -10 5 0 9 5 9 10 0 6 -7 10 -16 10 -8 0
-12 -4 -9 -10z"/>
<path d="M826 2562 c-3 -6 10 -12 29 -14 19 -2 35 0 35 4 0 4 -6 8 -14 8 -8 0
-21 3 -29 6 -8 3 -18 1 -21 -4z"/>
<path d="M718 2383 c7 -3 16 -2 19 1 4 3 -2 6 -13 5 -11 0 -14 -3 -6 -6z"/>
<path d="M820 2240 c0 -13 7 -20 20 -20 24 0 27 25 4 34 -23 9 -24 8 -24 -14z"/>
<path d="M860 2200 c0 -5 -16 -12 -35 -16 -37 -7 -48 -24 -16 -24 18 0 45 -23
37 -31 -2 -2 9 -5 25 -6 28 -2 29 -2 14 21 -14 21 -14 25 0 39 20 21 19 27 -5
27 -11 0 -20 -4 -20 -10z"/>
<path d="M720 2169 c0 -5 5 -7 10 -4 6 3 10 8 10 11 0 2 -4 4 -10 4 -5 0 -10
-5 -10 -11z"/>
<path d="M735 1960 c3 -5 11 -10 16 -10 6 0 7 5 4 10 -3 6 -11 10 -16 10 -6 0
-7 -4 -4 -10z"/>
<path d="M700 1894 c0 -17 58 -23 77 -8 14 10 10 12 -30 15 -31 3 -47 0 -47
-7z"/>
<path d="M1486 974 c-4 -9 -4 -19 -1 -22 2 -3 7 3 11 12 4 9 4 19 1 22 -2 3
-7 -3 -11 -12z"/>
<path d="M3708 2723 c7 -3 16 -2 19 1 4 3 -2 6 -13 5 -11 0 -14 -3 -6 -6z"/>
<path d="M3740 2719 c0 -5 5 -7 10 -4 6 3 10 8 10 11 0 2 -4 4 -10 4 -5 0 -10
-5 -10 -11z"/>
<path d="M3663 2703 c-4 -9 -20 -29 -37 -44 -17 -15 -28 -31 -23 -35 9 -9 87
65 87 83 0 19 -19 16 -27 -4z"/>
<path d="M3550 2430 c0 -5 4 -10 9 -10 6 0 13 5 16 10 3 6 -1 10 -9 10 -9 0
-16 -4 -16 -10z"/>
<path d="M3208 2373 c6 -2 18 -2 25 0 6 3 1 5 -13 5 -14 0 -19 -2 -12 -5z"/>
<path d="M3168 2253 c6 -2 18 -2 25 0 6 3 1 5 -13 5 -14 0 -19 -2 -12 -5z"/>
<path d="M3273 2240 c-13 -5 -23 -12 -23 -16 0 -3 7 -4 15 0 8 3 15 1 15 -4 0
-6 -9 -10 -20 -10 -13 0 -20 -7 -20 -20 0 -17 5 -19 28 -14 25 6 72 49 72 67
0 10 -40 8 -67 -3z"/>
<path d="M2105 2590 c-4 -6 -3 -16 3 -22 6 -6 12 -6 17 2 4 6 3 16 -3 22 -6 6
-12 6 -17 -2z"/>
<path d="M1986 2475 c-3 -8 -1 -25 4 -37 8 -20 9 -18 9 15 1 39 -3 47 -13 22z"/>
<path d="M2293 2453 c-15 -5 -18 -33 -4 -33 6 0 13 5 16 11 4 6 14 8 22 4 13
-4 14 -3 3 10 -13 16 -17 17 -37 8z"/>
<path d="M2185 2390 c-3 -5 -1 -10 4 -10 6 0 11 5 11 10 0 6 -2 10 -4 10 -3 0
-8 -4 -11 -10z"/>
<path d="M2554 2363 c-4 -13 -10 -23 -15 -23 -5 0 -9 -5 -9 -12 0 -9 3 -9 12
0 8 8 16 8 32 0 20 -11 20 -11 -3 -19 -23 -9 -20 -29 5 -29 8 0 14 -4 14 -10
0 -5 5 -10 11 -10 8 0 8 5 -1 15 -10 12 -9 16 2 20 20 8 15 60 -6 60 -9 0 -21
7 -26 15 -8 12 -11 11 -16 -7z"/>
<path d="M2790 2330 c0 -5 5 -10 11 -10 5 0 7 5 4 10 -3 6 -8 10 -11 10 -2 0
-4 -4 -4 -10z"/>
<path d="M2508 2303 c7 -3 16 -2 19 1 4 3 -2 6 -13 5 -11 0 -14 -3 -6 -6z"/>
<path d="M1740 2270 c0 -5 5 -10 10 -10 6 0 10 5 10 10 0 6 -4 10 -10 10 -5 0
-10 -4 -10 -10z"/>
<path d="M1782 2258 c5 -15 28 -23 28 -10 0 5 -7 13 -16 16 -10 4 -14 1 -12
-6z"/>
<path d="M2181 2254 c0 -11 3 -14 6 -6 3 7 2 16 -1 19 -3 4 -6 -2 -5 -13z"/>
<path d="M2200 2230 c0 -5 5 -10 11 -10 5 0 7 5 4 10 -3 6 -8 10 -11 10 -2 0
-4 -4 -4 -10z"/>
<path d="M2355 2170 c-3 -5 -1 -10 4 -10 6 0 11 5 11 10 0 6 -2 10 -4 10 -3 0
-8 -4 -11 -10z"/>
<path d="M1598 2163 c7 -3 16 -2 19 1 4 3 -2 6 -13 5 -11 0 -14 -3 -6 -6z"/>
<path d="M2747 2139 c4 -13 9 -17 15 -11 11 11 3 32 -12 32 -4 0 -6 -9 -3 -21z"/>
<path d="M2297 2143 c-4 -3 -7 -11 -7 -17 0 -6 5 -5 12 2 6 6 9 14 7 17 -3 3
-9 2 -12 -2z"/>
<path d="M2320 2110 c0 -5 7 -10 15 -10 8 0 15 5 15 10 0 6 -7 10 -15 10 -8 0
-15 -4 -15 -10z"/>
<path d="M1720 2100 c0 -5 7 -10 15 -10 8 0 15 5 15 10 0 6 -7 10 -15 10 -8 0
-15 -4 -15 -10z"/>
<path d="M1820 2100 c0 -5 7 -10 16 -10 8 0 12 5 9 10 -3 6 -10 10 -16 10 -5
0 -9 -4 -9 -10z"/>
<path d="M2800 2100 c0 -5 9 -10 21 -10 11 0 17 5 14 10 -3 6 -13 10 -21 10
-8 0 -14 -4 -14 -10z"/>
<path d="M2260 2090 c0 -5 5 -10 10 -10 6 0 10 5 10 10 0 6 -4 10 -10 10 -5 0
-10 -4 -10 -10z"/>
<path d="M2272 1958 c2 -6 10 -14 16 -16 7 -2 10 2 6 12 -7 18 -28 22 -22 4z"/>
<path d="M2215 1900 c3 -5 10 -10 16 -10 5 0 9 5 9 10 0 6 -7 10 -16 10 -8 0
-12 -4 -9 -10z"/>
<path d="M2165 1850 c3 -5 10 -10 16 -10 5 0 9 5 9 10 0 6 -7 10 -16 10 -8 0
-12 -4 -9 -10z"/>
<path d="M2129 1837 c9 -11 10 -17 2 -17 -6 0 -11 -4 -11 -10 0 -5 18 -10 40
-10 22 0 40 5 40 10 0 6 -8 10 -18 10 -10 0 -29 8 -42 17 -24 16 -24 16 -11 0z"/>
<path d="M2080 1774 c0 -8 5 -12 10 -9 6 3 10 10 10 16 0 5 -4 9 -10 9 -5 0
-10 -7 -10 -16z"/>
<path d="M2132 1765 l-23 -12 24 -5 c14 -3 35 1 47 7 20 11 20 13 5 18 -21 9
-25 8 -53 -8z"/>
<path d="M2034 1749 c-3 -5 1 -9 9 -9 8 0 17 -7 21 -15 6 -16 76 -22 76 -6 0
17 -97 45 -106 30z"/>
<path d="M2105 1673 c-35 -11 -50 -12 -53 -4 -7 20 -20 12 -15 -9 4 -13 14
-20 30 -20 20 0 23 -3 14 -13 -8 -10 -7 -17 1 -25 19 -19 41 -14 61 13 15 22
16 25 2 25 -22 0 -19 16 7 34 27 19 19 19 -47 -1z"/>
<path d="M2160 1593 c-33 -6 -51 -23 -24 -23 16 0 17 -2 4 -10 -13 -8 -12 -10
3 -10 9 0 17 5 17 10 0 6 9 10 20 10 11 0 20 7 20 15 0 8 -3 14 -7 14 -5 -1
-19 -4 -33 -6z"/>
<path d="M2365 1470 c-3 -5 -1 -10 4 -10 6 0 11 5 11 10 0 6 -2 10 -4 10 -3 0
-8 -4 -11 -10z"/>
<path d="M2258 1458 c9 -9 15 -9 24 0 9 9 7 12 -12 12 -19 0 -21 -3 -12 -12z"/>
<path d="M2150 1424 l-25 -15 29 3 c16 2 31 9 34 16 5 15 -6 14 -38 -4z"/>
<path d="M3007 1693 c-14 -13 -6 -20 22 -20 24 0 27 3 16 14 -15 14 -28 17
-38 6z"/>
<path d="M2830 1675 c1 -16 36 -58 46 -54 5 2 -3 17 -18 34 -16 16 -28 25 -28
20z"/>
<path d="M2934 1644 c11 -8 35 -14 53 -14 18 0 33 -4 33 -8 0 -10 45 -32 65
-32 10 0 11 5 2 24 -13 27 -43 37 -122 42 -45 2 -48 1 -31 -12z"/>
<path d="M2935 1580 c10 -11 20 -20 22 -20 1 0 3 9 3 20 0 14 -7 20 -22 20
-20 0 -21 -1 -3 -20z"/>
<path d="M3010 1590 c0 -5 5 -10 11 -10 5 0 7 5 4 10 -3 6 -8 10 -11 10 -2 0
-4 -4 -4 -10z"/>
<path d="M3080 1555 c0 -8 9 -15 20 -15 11 0 20 2 20 5 0 2 -9 9 -20 15 -16 9
-20 8 -20 -5z"/>
<path d="M2780 1551 c0 -13 27 -21 46 -14 13 5 13 7 2 14 -17 11 -48 11 -48 0z"/>
<path d="M2876 1531 c6 -7 30 -14 54 -16 56 -5 40 12 -20 21 -34 5 -42 4 -34
-5z"/>
<path d="M3175 4250 c-3 -5 1 -10 9 -10 9 0 16 5 16 10 0 6 -4 10 -9 10 -6 0
-13 -4 -16 -10z"/>
<path d="M3265 4230 c-3 -5 -1 -10 4 -10 6 0 11 5 11 10 0 6 -2 10 -4 10 -3 0
-8 -4 -11 -10z"/>
<path d="M2791 4197 c-1 -14 -6 -17 -21 -12 -24 8 -28 -16 -5 -35 22 -18 38 0
32 36 -2 16 -5 21 -6 11z"/>
<path d="M3270 4160 c0 -5 5 -10 10 -10 6 0 10 5 10 10 0 6 -4 10 -10 10 -5 0
-10 -4 -10 -10z"/>
<path d="M2959 4069 c-1 -2 -3 -15 -4 -29 -1 -14 -6 -33 -10 -43 -6 -13 -4
-16 9 -11 20 8 20 -1 -1 -36 -13 -23 -14 -34 -5 -52 l11 -23 0 26 c1 26 33 76
58 92 15 9 17 37 3 37 -5 0 -10 -4 -10 -10 0 -5 -5 -10 -10 -10 -6 0 -8 11 -4
28 4 15 3 24 -1 20 -5 -4 -14 -3 -22 3 -7 6 -14 10 -14 8z"/>
<path d="M2910 4019 c0 -5 5 -7 10 -4 6 3 10 8 10 11 0 2 -4 4 -10 4 -5 0 -10
-5 -10 -11z"/>
<path d="M3062 4018 c-14 -14 -16 -28 -2 -28 5 0 14 9 20 20 12 22 1 27 -18 8z"/>
<path d="M2730 3966 c0 -9 7 -16 16 -16 17 0 14 22 -4 28 -7 2 -12 -3 -12 -12z"/>
<path d="M2771 3903 c0 -6 -4 -20 -7 -30 -5 -14 -4 -15 5 -7 7 7 11 20 8 30
-3 11 -5 14 -6 7z"/>
<path d="M2634 3869 c-3 -6 -1 -16 5 -22 8 -8 11 -5 11 11 0 24 -5 28 -16 11z"/>
<path d="M2857 3856 c-3 -8 -4 -22 -2 -32 2 -11 4 -27 4 -36 1 -10 6 -18 11
-18 6 0 10 23 10 50 0 48 -12 66 -23 36z"/>
<path d="M2907 3813 c-11 -10 -8 -103 2 -103 5 0 10 25 10 55 0 57 -1 60 -12
48z"/>
<path d="M1715 3800 c3 -5 11 -10 16 -10 6 0 7 5 4 10 -3 6 -11 10 -16 10 -6
0 -7 -4 -4 -10z"/>
<path d="M2016 3773 c3 -21 13 -45 22 -53 13 -13 14 -13 7 5 -4 11 -10 32 -13
48 -2 15 -9 30 -14 33 -6 4 -7 -9 -2 -33z"/>
<path d="M2642 3775 c0 -16 2 -22 5 -12 2 9 2 23 0 30 -3 6 -5 -1 -5 -18z"/>
<path d="M2816 3761 c-8 -49 -3 -62 13 -33 6 11 7 31 2 48 -7 28 -8 28 -15
-15z"/>
<path d="M2686 3771 c-5 -8 -2 -20 8 -29 17 -17 19 -9 7 22 -6 15 -10 16 -15
7z"/>
<path d="M2777 3750 c-3 -11 -1 -20 4 -20 5 0 9 9 9 20 0 11 -2 20 -4 20 -2 0
-6 -9 -9 -20z"/>
<path d="M0 3703 c0 -32 4 -43 15 -43 8 0 15 9 15 20 0 14 5 18 18 13 14 -5
15 -3 5 7 -10 11 -15 11 -29 -1 -12 -9 -15 -9 -10 -2 4 7 2 21 -3 30 -8 14
-10 9 -11 -24z"/>
<path d="M2275 3700 c3 -5 8 -10 11 -10 2 0 4 5 4 10 0 6 -5 10 -11 10 -5 0
-7 -4 -4 -10z"/>
<path d="M2705 3697 c-4 -10 -5 -21 -1 -24 10 -10 18 4 13 24 -4 17 -4 17 -12
0z"/>
<path d="M1500 3690 c0 -5 7 -10 16 -10 8 0 12 5 9 10 -3 6 -10 10 -16 10 -5
0 -9 -4 -9 -10z"/>
<path d="M1610 3691 c0 -6 5 -13 10 -16 18 -11 12 -45 -7 -42 -27 3 -29 -16
-4 -29 12 -6 32 -21 45 -33 12 -11 25 -21 28 -21 12 0 -5 45 -21 58 -14 11
-14 14 -1 22 11 7 17 4 22 -9 10 -28 25 -33 22 -8 -1 12 -3 33 -4 47 -2 18 -4
20 -7 7 -4 -16 -8 -15 -35 8 -31 26 -48 32 -48 16z"/>
<path d="M1710 3691 c0 -5 7 -12 16 -15 22 -9 24 -8 24 9 0 8 -9 15 -20 15
-11 0 -20 -4 -20 -9z"/>
<path d="M2632 3675 c0 -16 2 -22 5 -12 2 9 2 23 0 30 -3 6 -5 -1 -5 -18z"/>
<path d="M2667 3671 c-2 -10 -1 -25 4 -32 6 -10 9 -4 9 19 0 36 -5 42 -13 13z"/>
<path d="M1920 3661 c0 -5 5 -13 10 -16 6 -3 10 -2 10 4 0 5 -4 13 -10 16 -5
3 -10 2 -10 -4z"/>
<path d="M2536 3643 c9 -38 14 -42 14 -10 0 14 -5 29 -10 32 -7 4 -8 -3 -4
-22z"/>
<path d="M2101 3638 c-1 -24 18 -72 26 -64 3 3 1 16 -5 29 -6 12 -13 29 -15
37 -4 12 -6 12 -6 -2z"/>
<path d="M2841 3634 c0 -11 3 -14 6 -6 3 7 2 16 -1 19 -3 4 -6 -2 -5 -13z"/>
<path d="M1250 3626 c6 -8 19 -12 27 -9 14 6 14 8 -3 14 -30 12 -37 10 -24 -5z"/>
<path d="M2227 3633 c-4 -3 -7 -15 -7 -25 0 -26 24 -17 28 10 3 21 -8 29 -21
15z"/>
<path d="M2583 3595 c4 -26 7 -56 7 -65 0 -13 6 -17 20 -13 25 7 29 63 5 63
-9 0 -15 9 -15 24 0 14 -5 28 -12 32 -8 5 -9 -6 -5 -41z"/>
<path d="M1720 3622 c0 -10 22 -32 32 -32 15 0 8 15 -12 28 -11 7 -20 9 -20 4z"/>
<path d="M1970 3600 c0 -23 4 -31 14 -27 8 3 22 -1 33 -8 10 -8 21 -15 25 -15
11 0 -12 57 -28 71 -12 10 -13 9 -8 -7 7 -19 7 -19 -14 0 l-22 19 0 -33z"/>
<path d="M2264 3590 c5 -55 16 -64 16 -12 0 22 -4 44 -10 47 -6 4 -8 -10 -6
-35z"/>
<path d="M1521 3611 c-10 -6 -10 -10 -1 -16 13 -8 24 -1 19 14 -3 6 -10 7 -18
2z"/>
<path d="M1190 3601 c0 -6 6 -11 14 -11 8 0 23 -3 33 -6 12 -5 15 -4 8 3 -15
16 -55 26 -55 14z"/>
<path d="M2320 3595 c0 -8 5 -15 10 -15 7 0 7 -6 0 -20 -6 -11 -7 -20 -1 -20
13 0 20 25 14 49 -6 24 -23 28 -23 6z"/>
<path d="M1105 3590 c3 -5 13 -10 21 -10 8 0 12 5 9 10 -3 6 -13 10 -21 10 -8
0 -12 -4 -9 -10z"/>
<path d="M2491 3584 c0 -11 3 -14 6 -6 3 7 2 16 -1 19 -3 4 -6 -2 -5 -13z"/>
<path d="M2524 3585 c-8 -21 6 -41 17 -24 12 19 11 39 -1 39 -6 0 -13 -7 -16
-15z"/>
<path d="M1312 3578 c7 -21 36 -34 48 -22 9 9 3 14 -20 22 -24 9 -31 9 -28 0z"/>
<path d="M1580 3585 c0 -16 13 -31 38 -44 21 -11 23 -11 20 6 -2 10 -12 19
-23 22 -11 2 -23 8 -27 15 -4 6 -8 7 -8 1z"/>
<path d="M1945 3550 c3 -5 8 -10 11 -10 2 0 4 5 4 10 0 6 -5 10 -11 10 -5 0
-7 -4 -4 -10z"/>
<path d="M2431 3544 c0 -11 3 -14 6 -6 3 7 2 16 -1 19 -3 4 -6 -2 -5 -13z"/>
<path d="M1187 3543 c-4 -3 -2 -12 4 -20 9 -10 6 -13 -15 -13 -29 0 -36 -16
-8 -22 9 -3 -1 -5 -23 -5 -46 0 -85 -11 -85 -22 0 -7 24 -8 137 -2 22 1 34 7
38 22 5 14 10 17 18 10 14 -11 67 -3 67 10 0 5 -13 9 -30 9 -19 0 -30 5 -30
14 0 19 -58 34 -73 19z"/>
<path d="M1548 3543 c-19 -5 -25 -23 -8 -23 6 0 10 -6 10 -14 0 -8 9 -17 19
-21 31 -10 46 -32 31 -50 -14 -17 -7 -31 20 -38 14 -4 20 0 20 12 0 25 11 33
27 20 18 -16 16 -4 -4 27 -9 14 -27 30 -40 35 -13 5 -23 16 -23 24 0 9 -4 13
-10 10 -5 -3 -10 1 -10 9 0 16 -2 17 -32 9z m92 -103 c0 -5 -4 -10 -10 -10 -5
0 -10 5 -10 10 0 6 5 10 10 10 6 0 10 -4 10 -10z"/>
<path d="M1800 3540 c0 -5 5 -10 10 -10 6 0 10 5 10 10 0 6 -4 10 -10 10 -5 0
-10 -4 -10 -10z"/>
<path d="M2530 3531 c0 -5 5 -13 10 -16 6 -3 10 -2 10 4 0 5 -4 13 -10 16 -5
3 -10 2 -10 -4z"/>
<path d="M1724 3505 c5 -18 2 -25 -8 -25 -8 0 -18 5 -21 10 -9 14 -25 12 -25
-2 1 -20 38 -60 50 -53 6 3 8 11 4 16 -3 6 0 10 7 8 28 -3 39 1 39 16 0 9 -7
18 -15 21 -8 4 -15 12 -15 20 0 8 -5 14 -11 14 -7 0 -9 -10 -5 -25z"/>
<path d="M2220 3520 c0 -5 5 -10 11 -10 5 0 7 5 4 10 -3 6 -8 10 -11 10 -2 0
-4 -4 -4 -10z"/>
<path d="M1080 3510 c0 -5 7 -10 15 -10 8 0 15 5 15 10 0 6 -7 10 -15 10 -8 0
-15 -4 -15 -10z"/>
<path d="M1917 3490 c17 -29 43 -41 43 -20 0 13 -37 50 -51 50 -5 0 -2 -13 8
-30z"/>
<path d="M2060 3501 c0 -6 9 -15 21 -21 18 -10 20 -9 17 7 -3 19 -38 32 -38
14z"/>
<path d="M2516 3475 c-3 -8 -1 -15 4 -15 6 0 10 7 10 15 0 8 -2 15 -4 15 -2 0
-6 -7 -10 -15z"/>
<path d="M2090 3350 c0 -5 5 -10 11 -10 5 0 7 5 4 10 -3 6 -8 10 -11 10 -2 0
-4 -4 -4 -10z"/>
<path d="M2535 3340 c4 -6 11 -8 16 -5 14 9 11 15 -7 15 -8 0 -12 -5 -9 -10z"/>
<path d="M81 244 c-9 -20 -9 -25 0 -22 14 5 32 48 20 48 -4 0 -13 -12 -20 -26z"/>
<path d="M35 210 c4 -6 11 -8 16 -5 14 9 11 15 -7 15 -8 0 -12 -5 -9 -10z"/>
<path d="M111 187 c0 -15 -8 -30 -16 -32 -48 -15 -48 -15 -35 -30 6 -8 9 -19
5 -25 -3 -5 1 -13 9 -16 9 -3 16 -12 16 -20 0 -8 9 -14 20 -14 19 0 24 -10 21
-37 -1 -7 9 -13 22 -13 22 0 23 2 19 59 -3 36 0 61 7 65 16 11 13 46 -4 46
-10 0 -15 -10 -15 -32 0 -30 -1 -31 -16 -16 -10 9 -20 34 -24 55 -6 31 -8 33
-9 10z"/>
<path d="M236 194 c-11 -8 -16 -14 -10 -14 13 0 39 18 34 24 -3 2 -14 -2 -24
-10z"/>
<path d="M847 183 c-12 -12 -7 -22 8 -17 8 4 15 10 15 15 0 11 -14 12 -23 2z"/>
<path d="M856 63 c10 -41 19 -47 18 -11 0 18 -6 34 -13 36 -8 3 -10 -5 -5 -25z"/>
<path d="M4580 9 c0 -5 9 -9 20 -9 11 0 20 2 20 4 0 2 -9 6 -20 9 -11 3 -20 1
-20 -4z"/>
<path d="M4635 10 c-4 -6 6 -10 22 -10 22 0 25 2 13 10 -19 12 -27 12 -35 0z"/>
<path d="M833 3 c9 -2 23 -2 30 0 6 3 -1 5 -18 5 -16 0 -22 -2 -12 -5z"/>
</g>
</svg>
